<?xml version="1.0" encoding="utf-8"?>
<!-- Generator: Adobe Illustrator 24.1.2, SVG Export Plug-In . SVG Version: 6.00 Build 0)  -->
<svg version="1.1" id="Capa_1" xmlns="http://www.w3.org/2000/svg" xmlns:xlink="http://www.w3.org/1999/xlink" x="0px" y="0px"
	 viewBox="0 0 826.8 386.7" style="enable-background:new 0 0 826.8 386.7;" xml:space="preserve">
<style type="text/css">
	.st0{fill:#7E1F6A;}
	.st1{clip-path:url(#SVGID_2_);}
	.st2{fill:#0B0C0C;}
	.st3{fill:none;}
</style>
<g>
	<g>
		<path class="st0" d="M314,170.6h-31.3v-67.5c0-23.3,2.8-40.9,8.4-52.8c5.2-11,13.4-18.4,24.5-22.2c8.6-3,21.8-4.5,39.5-4.5h47.1
			v25.5h-50c-12.9,0-22.3,2.5-28.2,7.5c-6.6,5.6-10,15.1-10,28.5h88.2v25.1H314V170.6z"/>
		<path class="st0" d="M419.9,23.6h29.4v26.8h-29.4V23.6z M419.9,62.9h29.4v107.7h-29.4V62.9z"/>
		<path class="st0" d="M483.2,84.4h-19.8V62.9h19.8V23.6h28.4v39.3h30.5v21.4h-30.5V128c0,8.8,1.9,14.6,5.7,17.4
			c3.5,2.6,10.8,3.9,21.9,3.9h2.9v21.4h-26c-10.6,0-18.8-2.9-24.4-8.8c-5.7-5.8-8.5-14.1-8.5-24.7V84.4z"/>
	</g>
	<g>
		<path class="st0" d="M351.8,352.5H284v-147h67c23.9,0,41.5,6.4,52.9,19.2c11.1,12.5,16.7,31.6,16.7,57.2c0,12.7-1.6,23.6-4.8,32.6
			c-4.1,11.6-10.8,20.5-20.1,26.8C384.6,348.8,370,352.5,351.8,352.5z M350.6,231.1h-35.8V327h35.8c13.4,0,22.4-2.7,27.2-8.1
			c5.8-6.6,8.8-19.8,8.8-39.8c0-17.8-2.3-30-6.8-36.7C374.7,234.9,365,231.1,350.6,231.1z"/>
		<path class="st0" d="M467.2,352.5H439V244.8h47.9c13,0,21.4,2.6,25,7.8c3.2,4.6,4.8,14.8,4.8,30.6v6.6h-27v-8.6
			c0-7.8-0.9-12.4-2.8-13.8c-1.9-1.3-8.4-2-19.6-2V352.5z"/>
		<path class="st0" d="M535.3,205.5h29.4v26.8h-29.4V205.5z M535.3,244.8h29.4v107.7h-29.4V244.8z"/>
		<path class="st0" d="M653.5,352.5h-30.3l-45.6-107.7h31.5l30,76.6l31.5-76.6h30.6L653.5,352.5z"/>
		<path class="st0" d="M803.5,330.3v22.2H762c-14.1,0-25.5-2.9-34.2-8.6c-7.4-4.9-12.8-11.7-16.2-20.5c-2.7-7.1-4.1-15.4-4.1-24.8
			c0-15.6,3.9-28,11.7-37.2c9.3-11,23.6-16.6,42.8-16.6h41.5v22.2h-37.6c-9.3,0-15.8,1.2-19.5,3.5c-4.7,2.9-7.1,8.6-7.1,17h64.2
			v22.7h-64.2c0,8.1,1.7,13.5,5.2,16.1c3.5,2.6,10.6,3.9,21.2,3.9H803.5z"/>
	</g>
	<g>
		<defs>
			<rect id="SVGID_1_" x="23.4" y="19.8" width="246" height="347.2"/>
		</defs>
		<clipPath id="SVGID_2_">
			<use xlink:href="#SVGID_1_"  style="overflow:visible;"/>
		</clipPath>
		<g class="st1">
			<path class="st2" d="M84.4,216.8c0,0-14-5.1-19.2-5.7c-7-0.9-16.7,0.4-21.6,1.4c-1.1,0.2-2.2-0.6-2.2-1.8v-47.4
				c0-2.7,2.1-5,4.8-5.4c5.1-0.8,8.7-1.2,12.2-1.6c4.5-0.5,8.8-0.2,12,0.3c8.6,1.3,14.9,8.8,14.7,17.5L84.4,216.8z"/>
			<path class="st2" d="M139.7,288c-3.9-22.2-9.5-30.8-22.1-44.5c-1.9-2.1-5.1-5.7-8.8-9.2c-8.1-7.6-12.6-18.3-12.6-29.4v-32.9
				c0-2.4,2.8-3.8,4.7-2.4l0,0c26.8,19.6,32.4,35.1,38.1,72.4C141.3,257.2,143.3,272.2,139.7,288z"/>
			<path class="st2" d="M209.1,216.8c0,0,14-5.1,19.2-5.7c7-0.9,16.7,0.4,21.6,1.4c1.1,0.2,2.2-0.6,2.2-1.8v-47.4
				c0-2.7-2.1-5-4.8-5.4c-5.1-0.8-8.7-1.2-12.2-1.6c-4.5-0.5-8.8-0.2-12,0.3c-8.6,1.3-14.9,8.8-14.7,17.5L209.1,216.8z"/>
			<path class="st2" d="M153.8,288c3.9-22.2,9.5-30.8,22.1-44.5c1.9-2.1,5.1-5.7,8.8-9.2c8.1-7.6,12.6-18.3,12.6-29.4v-32.9
				c0-2.4-2.8-3.8-4.7-2.4l0,0c-26.8,19.6-32.4,35.1-38.1,72.4C152.1,257.2,150.2,272.2,153.8,288z"/>
		</g>
		<g class="st1">
			<path class="st2" d="M84.4-55.7c0,0-14-5.1-19.2-5.7c-7-0.9-16.7,0.4-21.6,1.4c-1.1,0.2-2.2-0.6-2.2-1.8v-47.4
				c0-2.7,2.1-5,4.8-5.4c5.1-0.8,8.7-1.2,12.2-1.6c4.5-0.5,8.8-0.2,12,0.3c8.6,1.3,14.9,8.8,14.7,17.5L84.4-55.7z"/>
			<path class="st2" d="M139.7,15.5c-3.9-22.2-9.5-30.8-22.1-44.5c-1.9-2.1-5.1-5.7-8.8-9.2c-8.1-7.6-12.6-18.3-12.6-29.4v-32.9
				c0-2.4,2.8-3.8,4.7-2.4l0,0c26.8,19.6,32.4,35.1,38.1,72.4C141.3-15.2,143.3-0.3,139.7,15.5z"/>
			<path class="st2" d="M209.1-55.7c0,0,14-5.1,19.2-5.7c7-0.9,16.7,0.4,21.6,1.4c1.1,0.2,2.2-0.6,2.2-1.8v-47.4
				c0-2.7-2.1-5-4.8-5.4c-5.1-0.8-8.7-1.2-12.2-1.6c-4.5-0.5-8.8-0.2-12,0.3c-8.6,1.3-14.9,8.8-14.7,17.5L209.1-55.7z"/>
			<path class="st2" d="M153.8,15.5c3.9-22.2,9.5-30.8,22.1-44.5c1.9-2.1,5.1-5.7,8.8-9.2c8.1-7.6,12.6-18.3,12.6-29.4v-32.9
				c0-2.4-2.8-3.8-4.7-2.4l0,0c-26.8,19.6-32.4,35.1-38.1,72.4C152.1-15.2,150.2-0.3,153.8,15.5z"/>
		</g>
		<g class="st1">
			<path class="st3" d="M163.2,331.3c3.2-3.4,3.7-5.3,3.9-7c0.1-1.1,0.2-2.1,0.9-3.4c-4.3,5.6-7.5,11.1-10,18.2
				c2.8-3.2,5.3-6.4,7.2-9.5L163.2,331.3z"/>
			<polygon class="st3" points="58.1,-71.3 58.1,-71.3 58.1,-71.3 			"/>
			<path class="st3" d="M57.6-69.9l-0.2,0.7l0,0l-0.1,0.3l0,0l0,0l0,0.1l-0.1,0.1c0,0,0,0,0,0c0,0.1-0.1,0.2-0.1,0.3
				c0.1-0.2,0.2-0.4,0.3-0.6c0.3-0.7,0.5-1.5,0.8-2.2L57.6-69.9C57.6-69.9,57.6-69.9,57.6-69.9z"/>
			<path class="st3" d="M50.1-83.6c0.1,0.9,0.1,1.7,0.2,2.6c0.3,0,0.5,0.1,0.7,0.2c0-0.2,0-0.3,0-0.5l0-0.7c0,0,0-0.1,0-0.1l0,0
				l0.1,0l0.2-0.2l0.5-0.4c0.3-0.2,0.7-0.5,1-0.7c0.7-0.5,1.4-1.1,2.2-1.6c0.3,1-0.5,3.2-0.7,4.7c-0.2,1.4,0,2.4,1.8,1.8
				c0.1-0.2,0.1-0.4,0.3-0.6c0-0.1,0.1-0.2,0.2-0.4c0.1-0.1,0.2-0.2,0.3-0.3c0.2-0.2,0.4-0.3,0.7-0.5c0.3-0.2,0.6-0.4,0.9-0.5
				c-0.3,0.2-0.6,0.4-0.9,0.5c-0.3,0.2-0.5,0.3-0.8,0.5c-0.1,0.1-0.2,0.2-0.3,0.3c-0.1,0.1-0.2,0.2-0.2,0.4c0,0.2,0,0.3,0,0.5
				c0.1,0,0.2-0.1,0.3-0.1c2.6-1.6,4.1-3.1,4.8-4.5c0.7-1.4,0.8-2.8,0.6-4.3c-0.4-2.9-1.9-5.7-0.3-9.2c-4.5,3.3-7.8,5-10.7,5.5
				c-0.4,0.1-0.7,0.1-1.1,0.1l-0.3,0l-0.1,0c0,0-0.1-0.1-0.1,0.1l0,0.3c0.1,0.9,0.1,1.8,0.2,2.7c0.1,1,0.1,1.9,0.2,2.8
				c1,0.2,2,0.7,2.9,1.4C52-83.7,51-83.7,50.1-83.6z"/>
			<path class="st3" d="M50.3-77.4c0-0.5-0.1-0.9-0.1-1.5c0,0-0.1,0-0.1,0c0,0.1,0,0.1,0,0.1l0,0.1l0,0.2l0,0.5
				c0,0.2,0.1,0.3,0.1,0.4C50.3-77.5,50.3-77.5,50.3-77.4z"/>
			<path class="st3" d="M54.1-59.6c0,0.1-0.1,0.2-0.1,0.3c0.2-0.6,0.3-1.2,0.5-1.8c-0.1,0.3-0.2,0.6-0.3,0.9
				C54.2-59.9,54.2-59.8,54.1-59.6z"/>
			<path class="st3" d="M53.7-57.7c0,0.2-0.1,0.3-0.1,0.5c0.1-0.6,0.2-1.2,0.3-1.7c0,0.2-0.1,0.4-0.1,0.6
				C53.8-58.1,53.7-57.9,53.7-57.7z"/>
			<path class="st3" d="M56.2-66.3c-0.1,0.4-0.3,0.8-0.4,1.2c-0.1,0.2-0.1,0.4-0.2,0.6c0.3-0.9,0.6-1.8,0.9-2.7
				c0,0.1-0.1,0.2-0.1,0.3C56.3-66.7,56.2-66.5,56.2-66.3z"/>
			<path class="st3" d="M54.6-61.1c0,0,0-0.1,0-0.1L54.6-61.1L54.6-61.1z"/>
			<path class="st3" d="M55.1-63.1c0-0.1,0.1-0.2,0.1-0.3c0,0.1,0,0.1-0.1,0.2C55.2-63.2,55.2-63.2,55.1-63.1z"/>
			<path class="st3" d="M75.4-63.6l-0.5,6.6c0.2-0.8,0.5-1.7,0.8-2.5C75.7-61.7,75.7-63.4,75.4-63.6z"/>
			<path class="st3" d="M77.8-65.6c-0.1,0.3-0.1,0.4-0.2,0.7c0.3-0.8,0.7-1.6,1.1-2.5C78.6-67.5,78.4-67.1,77.8-65.6z"/>
			<path class="st3" d="M151.9,322.4c0.3-0.4,0.7-0.7,1-1c0.2-1.3,0.3-2.6,0.5-3.9C152.6,319.1,152,320.8,151.9,322.4z"/>
			<path class="st3" d="M40.6,396.5C40.6,396.5,40.6,396.5,40.6,396.5c-0.1-0.1-0.1-0.1-0.2-0.2C40.5,396.4,40.5,396.5,40.6,396.5
				L40.6,396.5z"/>
			<path class="st3" d="M40.6,396.5L40.6,396.5l0.3,0.2C40.8,396.7,40.7,396.6,40.6,396.5L40.6,396.5L40.6,396.5z"/>
			<path class="st3" d="M134.4,351.4c1.5,0.4,3.1,1,4.8,1.9c-0.4-2.1-0.8-4.1-1.3-6C136.5,349,135.4,350.5,134.4,351.4z"/>
			<path class="st3" d="M53.5-56.5C53.5-56.5,53.5-56.5,53.5-56.5l0-0.2c0,0,0,0,0,0C53.5-56.6,53.5-56.5,53.5-56.5z"/>
			<path class="st3" d="M108.3,311.7c-0.3-0.3-0.7-0.6-1.1-0.9C107.5,311,107.9,311.4,108.3,311.7z"/>
			<path class="st3" d="M152.2,328.4c0,0.1,0,0.2,0,0.3C152.2,328.5,152.2,328.4,152.2,328.4C152.2,328.3,152.2,328.4,152.2,328.4z"
				/>
			<path class="st3" d="M96.2,348.7c0.2-0.3,0.4-0.5,0.5-0.8c0-0.2-0.1-0.3-0.1-0.5C96.5,347.8,96.3,348.2,96.2,348.7z"/>
			<path class="st3" d="M135,353.7c-0.3-0.6-0.7-1.1-1.1-1.5c0.3,1.1,0.6,2.2,0.8,3.4C134.8,355,134.9,354.4,135,353.7z"/>
			<path class="st3" d="M163.8,334.2c-2.2,2.6-4,5.6-4.9,9.1c-0.7-0.1-1.3-0.4-2.1-0.1c-0.1,0-0.1,0.1-0.2,0.1
				c-1.1,3.7-2,7.9-2.8,12.8c-0.3-1.3-0.5-2.6-0.8-3.9c-0.7,2-2,4.2-3.5,6.6c-0.4,0.6-0.8,1.2-1.2,1.8c0,0,0.1,0.1,0.1,0.1
				c1.4,1.6,2.9,3.2,4.3,5l0.6,0.7c0,0,0-0.1,0-0.1c1.7-3.1,3.2-5.6,4.7-7.6c2.7-12.5,6.2-22,11.9-30.5
				C167.9,330,165.7,331.9,163.8,334.2z"/>
			<path class="st3" d="M90.5-71c0.7,1.9,1.2,3.8,1.7,5.9l1.1-1.5c-0.1-0.4-0.2-0.7-0.2-1.1c-0.9-1.2-1.8-2.5-2.7-3.7
				C90.4-71.2,90.5-71.1,90.5-71z"/>
			<path class="st3" d="M140.3,384.8l-0.2,0.2c0,0-0.1,0.1-0.1,0.1c0.6,4.5,1.1,9,1.4,13.5c1.3,0.1,2.7-0.3,3.9-1.8
				c-2.5,0.2-2.3-0.8-2.2-1.7c0.2-1.1,0.5-2.3-1.9-2.3c0-1.2,1.4-2.5,2.4-3.5c0.9-0.9,1.6-1.6,1.5-2.5l-0.2-0.6
				c0.1,0.2,0.2,0.4,0.2,0.6l0.3,0.9c2.3-1.3,3.8-2.7,4.8-4.3c1-1.6,1.5-3.4,1.8-5.4c0.4-2.2,0.5-4.6,0.6-6.9L140.3,384.8
				L140.3,384.8z"/>
			<path class="st3" d="M96.2,340.6c-0.7,1.4-1.4,2.9-2,4.7c-0.8,2.3-1.6,5.1-2.4,9c0.5,2,1.5-1.6,3-5.6c0.5-1.3,1-2.6,1.6-3.8
				c-0.1-1.2-0.2-2.4-0.2-3.6V340.6z"/>
			<path class="st3" d="M40.6,396.5L40.6,396.5C40.7,396.5,40.6,396.5,40.6,396.5C40.6,396.5,40.6,396.5,40.6,396.5L40.6,396.5z"/>
			<path class="st3" d="M75.3,367.3c-0.3,0.2-0.6,0.4-0.9,0.6c0.1,1.5,0.2,3,0.3,4.4c0,0.7,0.1,1.5,0.1,2.2l0.1,1.1l-0.1,0
				c-0.2,0.1-0.3,0.1-0.5,0.2c-0.6,0.3-1.2,0.6-1.4,0.9c-0.3,0.9-0.8,1.6-1.5,2.3c-0.4,0.3-0.7,0.6-1.1,0.9
				c-0.4,0.3-0.8,0.6-1.2,0.9c-0.5,0.3-0.6,0.5-0.8,0.8c-0.2,0.2-0.5,0.5-0.7,0.8c-0.4,0.6-0.8,1.3-1,2.2c-0.2,0.5,0,0.8,0.4,1.1
				c0.4,0.3,1,0.4,1.6,0.5c0.7,0.1,1.6,0,2.5-0.1c0.9-0.1,1.8-0.2,2.8-0.3c0-0.6,0.2-1.1,0.7-1.7c-1.9-0.1-3.2-0.9-2.9-3.3
				c2.7,2.1,3.6,1,4.1-0.6c0.1-0.2,0.1-0.4,0.2-0.6c0,0,0-0.3,0-0.5l0-0.6c0-0.4,0-0.9-0.1-1.3c-0.1-0.9-0.1-1.9-0.2-2.9
				c0-0.5-0.1-1-0.1-1.6l0-0.4c0-0.1,0-0.1,0-0.2l0-0.1l0.1-0.3c0.7-1.5,1.8-2.8,3.5-3.3C79.7,365.7,77.8,365.9,75.3,367.3z"/>
			<path class="st3" d="M79.8,355.8c1.7-0.5,2.7-1.2,3.4-1.8c0.4-0.4,0.6-0.7,0.9-1.1c-0.7-0.2-2.3-0.8-4.5-1.6
				C79.4,353.2,80,354.6,79.8,355.8z"/>
			<path class="st3" d="M93.3,341.6c0.9-1.7,1.8-3.4,2.9-5.1v-28.2c0-1.1,0.6-2,1.4-2.5c0.1-0.3,0.1-0.6,0.2-0.9
				c-1.6,1.6-2.8,3.6-2.7,2.2c-2.2,12.1-3.9,25.9-4.9,41.5C91.1,346.3,92.1,344,93.3,341.6z"/>
			<path class="st3" d="M89.6,359.9l-0.2,5.1c0.2-0.9,0.5-1.8,0.8-2.7C90.1,360.9,89.9,359.7,89.6,359.9z"/>
			<path class="st3" d="M92.5,356c-0.1,0.3-0.1,0.4-0.2,0.6c0.4-0.9,0.7-1.8,1.1-2.6C93.3,354,93,354.5,92.5,356z"/>
			<path class="st3" d="M98.8,304c0.9-0.2,1.8-0.3,2.9-0.4C100.9,302.9,99.8,303.3,98.8,304z"/>
			<path class="st3" d="M68,365.8C68,365.8,68,365.8,68,365.8c0-0.2,0.1-0.4,0.1-0.7l0-0.1c0,0,0,0,0-0.1c0-0.1,0-0.3,0.1-0.4
				c0.1-0.5,0.2-1,0.3-1.5c0,0,0-0.1,0-0.1l0.1-0.2c-0.1,0-0.2-0.1-0.3-0.2c0,0,0,0,0,0l-0.1,0l-0.2-0.1c-0.3-0.1-0.5-0.2-0.8-0.3
				c-0.3-0.2-0.7-0.4-1-0.5c-0.4-0.2-0.7-0.4-1.1-0.5c-0.4-0.2-0.7-0.3-1.1-0.4c-0.4-0.1-0.8-0.2-1.1-0.2c0.3,0.1,0.6,0.2,0.9,0.3
				c0.2,0.1,0.5,0.2,0.7,0.3c0.4,0.2,0.8,0.4,1.2,0.6c0.6,0.3,1.1,0.7,1.4,1.1c0.3,0.3,0.5,0.8,0.6,1.2c0.1,0.4,0.2,0.8,0.2,1.2
				c0,0.4,0,0.7,0,1.1c0,0,0,0,0,0l0.1-0.4L68,365.8z"/>
			<path class="st3" d="M147,43.7l0.6-0.3l0.6-0.3c1-0.8,2.6-1.8,4.9-3.1c0.4-0.3,0.7-0.5,1.1-0.8c0.1-0.5,0.1-1,0.2-1.4
				c0.3-2.1,0.6-4.1,1-6.1c-0.1,0.1-0.3,0.1-0.4,0.2c0.2-0.1,0.3-0.2,0.5-0.3c4-24,8.5-38.4,20.3-51.5l0,0c0.1-0.3,0.3-0.4,0.4-0.5
				c0.6-0.7,1.3-1.4,1.9-2c0.1-1.8,0.3-3.8,0-4.8c-0.4,0.2-0.8,0.5-1.3,0.9l0.2,1c-0.7,0.4-1.4-0.3-2.4-1.6c-1-1.2-2.4-2.9-4.2-4.4
				l-0.8-0.7l-0.2-0.2c0,0-0.1,0-0.1,0l-0.1,0.1l-0.4,0.3c-0.5,0.4-1,0.9-1.5,1.4c-0.9,1-1.8,2.1-2.5,3.4c-1.2,6.2-1.6,12.6-2,17.7
				c-0.4,5.1-0.7,8.9-2.1,10.6c-0.2-2.4-1-2.4-1.9-2.8c-0.9-0.5-1.9-1.3-2-6.1c-1.3-0.3-2.1,1.2-2.3,2.9c-0.3,1.7,0,3.7,0.5,4.9
				c1.7-1.2,0.8,0,2.3-0.4c0.5,4.1-0.9,6.1-2.6,5.3c0.4-0.2,0-0.6-0.3-1.5c-2.6,0.4,0.7,3.6,0.2,6c-1.3-1.5-2.1-1-3.1-0.2
				c-0.3,0.2-0.5,0.4-0.8,0.6l-0.2,0.2l-0.1,0.1l-0.2,0.2l-1.1,0.8c-0.7,0.5-1.5,1-2.4,1.5c-0.9,0.5-1.6,1-2.6,1.5
				c-2.6,1.4-5.7,2.6-8.7,3.4c0.8,3.5,1.5,7.1,2.2,11.1c0.2-0.1,0.4-0.2,0.6-0.3c5.5-2.6,10.7-5.8,15.7-9.4c-0.3,0.5-0.5,1-0.9,1.6
				c-0.4,0.6-0.9,1.2-1.4,1.8c-0.3,0.3-0.5,0.6-0.8,0.9c-0.3,0.3-0.6,0.6-1,1c-0.7,0.7-1.5,1.4-2.3,2c-0.8,0.7-1.9,1.4-2.9,2.1
				c-1.1,0.7-2.2,1.4-3.6,2.1c-0.7,0.4-1.4,0.7-2.1,1c-0.2,0.1-0.5,0.2-0.7,0.3c0.3,1.9,0.6,3.9,0.9,5.9c0.4,2.9,0.9,5.8,1.3,8.7
				c1-0.3,2-0.6,2.9-0.9c0.9-0.4,1.7-0.8,2.6-1.3C146.2,44.1,146.6,43.9,147,43.7z"/>
			<path class="st3" d="M69.2,348.6c0.1,0.9,0.3,1.8,0.4,2.7c0.3,1.8,0.5,3.6,0.8,5.3c0.3,1.7,0.5,3.4,0.8,5.1l0.2,1.2l0,0l-0.1,0
				c-0.1,0-0.2,0.1-0.2,0.1c-0.4,0.1-0.9,0.1-1.4,0c-0.3-0.1-0.6-0.2-1-0.4c0,0.1-0.1,0.2-0.1,0.4c-0.2,0.6-0.3,1.3-0.4,1.9
				c0,0.1,0,0.1,0,0.2l-0.1,0.4l0,0.3l0,0c0,0.2-0.1,0.3-0.1,0.5c0,0.1,0,0.1,0,0.2c0,0-0.1,0.4-0.1,0.7c0,0,0,0.1,0,0.1
				c0.1,0,0.1,0,0.2,0c0.4-0.1,1.1-0.2,1.7-0.4c0.5-0.2,1.2-0.4,1.6-0.7c0.3,0.9-0.8,3.1,0.9,2.8c0.2-0.1,0.4-0.2,0.5-0.3l0.1-0.1
				l0,0l0,0c0,0,0-0.1,0-0.2l-0.1-0.5c-0.2-1.4-0.4-2.8-0.5-4c-0.3-2.6-0.6-4.8-0.9-6.7c-0.1-0.5-0.1-0.9-0.2-1.4
				c0.1-0.1,0.1-0.2,0.1-0.3c0.1-0.2,0.2-0.4,0.2-0.5c0.6-1.4,0.5-2.4,0.1-3.3c-0.4-1.1-1.1-1.9-1.4-3.1c-0.4-0.1-0.8-0.2-1.1-0.3
				C69.2,348.3,69.2,348.4,69.2,348.6z"/>
			<path class="st3" d="M30.2,13.4c0-0.3,0-0.6,0.1-0.8c0-0.5,0.1-1,0.2-1.5c0.1-0.5,0.2-0.9,0.3-1.3c0.1-0.4,0.1-0.7,0.2-1
				c0.2-0.6,0.4-1.2,0.7-1.7c0.2-0.4,0.4-0.8,0.7-1.2c0.2-0.3,0.5-0.6,0.7-1c0,0,0.1-0.1,0.1-0.1c-1-0.2-2-0.4-3-0.7
				c-0.7-0.2-1.1-0.3-1.7-0.5c-0.3-0.1-0.6-0.2-0.9-0.3c0.2,0.5,0.4,0.9,0.5,1.5c0.1,0.6,0.2,1.1,0.3,1.7c0,0.6,0.1,1,0,1.6
				c-0.1,0.6-0.3,1.1-0.5,1.6c1.8-1.8,1.3-0.1,0.9,1.8c-0.1,0.4-0.3,1-0.4,1.5c-0.1,0.5-0.2,1-0.1,1.3c0,0.2,0.1,0.4,0.3,0.5
				c0.1,0,0.2,0.1,0.2,0.1c0.3,0,0.8-0.1,1.4-0.5C30.1,14,30.1,13.7,30.2,13.4z"/>
			<path class="st3" d="M93.2,35.1c-1.3-0.4-2.4-0.8-3.8-1.4c-0.7-0.3-1.3-0.6-2-0.9c-0.7-0.3-1.4-0.7-2-1c-0.5-0.3-1.1-0.6-1.6-0.9
				c0.5,1.2,0.9,2.5,1.1,3.8c0.6,0.3,1.2,0.6,1.8,1c0.9,0.5,1.9,0.9,2.9,1.4l1.5,0.7l1.6,0.7c1.1,0.5,2.3,0.9,3.5,1.3v-3.8
				C95.3,35.7,94.3,35.4,93.2,35.1z"/>
			<path class="st3" d="M115,36.3c-1,0-2-0.1-3-0.1c-2.3-0.2-4.7-0.5-6.9-0.9c-0.8-0.2-1.5-0.3-2.3-0.5c6.5,4.9,11.7,9.6,15.9,14.4
				c1.3,0,2.5,0,3.7,0c1.2,0,2.4-0.1,3.6-0.2c-2.4-3.1-5.2-6.3-8.4-9.8C116.9,38.4,116,37.4,115,36.3z"/>
			<path class="st3" d="M79.3,23.9c-0.1-0.7-0.3-1.5,0.5-3.8c-0.8,1.7-1.2,2.8-1.5,3.6c0.4,0.3,0.7,0.6,1,0.9
				C79.3,24.3,79.3,24.1,79.3,23.9z"/>
			<path class="st3" d="M71.4,17.7c0-0.8,0-2.1-0.2-2.8L71,20.1c-0.2,0.4-0.7,0.3-1.1-0.6c-0.4-1-0.7-2.6-0.3-5.8
				c0.1,1.5,0.3,1,0.6,1c0-0.7,0.1-1.2,0.2-1.6c0-0.4,0-0.6,0.1-0.9c-0.7,1.5-1.5,2.3-1.9,2.9c-0.5,0.6-0.8,0.9-0.8,1
				c0.6-1.8,0.9-3.2,1-4.5c0.1-1.3,0-2.3-0.3-3.3c-0.1-0.3-0.2-0.7-0.3-1c-1.2-0.3-2.2-0.5-3-0.6c-1.1-0.1-2.3-0.2-3.5-0.3
				c-0.1,0.1-0.2,0.2-0.3,0.3C61,6.9,60.6,7.2,60,7.4l-0.2,0.1c-0.1,0-0.1,0.1-0.3,0.1c-0.3,0.1-0.6,0.1-0.9,0.2
				c-0.6,0.1-1.2,0.2-1.8,0.4c-2.4,0.4-5,0.8-6.6,1c-0.3-0.8-1.1-1.3-2.4-1.8c-1.6,0.2-3.1,0.5-4.2,0.7c-0.5,0.1-1,0-1.4-0.3
				c-0.3,0.3-0.5,0.6-0.8,0.9l-0.1,0.1l0,0l0,0l0,0c0.5,0.5-2.3-2-3.9-3.3c0,0,0,0,0,0l0.8,0.7c0.6,0.5,1.2,1.1,1.8,1.6
				c1.8,1.5,1.1,1,1.1,1.1c-0.1,0-0.2-0.1-0.4-0.1c-0.4,0.1-0.9-0.1-1.8,0.3l-1.9-2c-0.3,1.8-1.4,4.2-3.7,7.6
				c-0.3,0.4-0.6,0.9-0.9,1.3c0.1,0,0.3,0.1,0.4,0.1c0.5,0.1,1,0.3,1.5,0.4c2,0.5,4.1,1,6.3,1.5c1.5,1.3,3.3,2.5,5,3.8
				c0.3-0.1,0.5-0.2,0.8-0.2c5.1-0.8,8.7-1.2,12.2-1.6c2.4-0.3,4.7-0.3,6.9-0.2c0.4-0.3,0.9-0.6,1.5-0.9c0.2-0.1,0.3-0.1,0.5-0.2
				c0,0,0.1-0.1,0.1-0.1c0.1-0.1,0.2-0.1,0.3-0.2l-0.2,0.3l-0.1,0.2l0,0.1c0,0,0,0-0.1,0.1l-1.9,0.8c1.9,0.1,3.6,0.3,5,0.5
				c0.4,0.1,0.7,0.1,1,0.2c0.1-1.3,0.1-2.5,0.2-3.8C71.4,18.6,71.4,18.5,71.4,17.7z"/>
			<path class="st3" d="M72.4,20.8c0.1,0,0.1,0,0.2,0.1c0-0.1,0-0.1,0-0.2C72.6,19.9,72.5,20.1,72.4,20.8z"/>
			<path class="st3" d="M73.1,11.2c-0.1,0-0.2-0.1-0.2-0.1c0.2-1.2,0.3-2,0.3-2.4c-0.2,0-0.3-0.1-0.5-0.1c0,0.1,0,0.2,0,0.4
				c-0.6,4.5-0.8,7.2-1,10.1c0,0.5-0.1,1-0.1,1.5c0.1,0,0.1,0,0.2,0c0-0.4,0.1-0.7,0.1-1.1C72.3,16,72.8,12.5,73.1,11.2z"/>
			<path class="st3" d="M72.9,19.3c-0.1,0.6-0.1,1-0.2,1.6c0.1,0,0.1,0,0.2,0.1C72.9,20.3,72.9,19.8,72.9,19.3z"/>
			<path class="st3" d="M99.5,398.1c0.2-0.4,0.4-0.7,0.6-1C100,396.8,99.8,397.1,99.5,398.1z"/>
			<path class="st3" d="M100.2,397.1C100.2,397.1,100.2,397.1,100.2,397.1L100.2,397.1C100.2,397.1,100.2,397.1,100.2,397.1z"/>
			<path class="st3" d="M79.4,15.5c-0.1,1.2-0.1,2.6-1.1,6.4c1.6-4,1.8-3.5,2.1-2.8c0.2,0.7,0.4,1.5,2-1.1c-0.1-0.5-0.1-1.1-0.1-1.6
				c1-0.7,2.1-1.2,3.5-1.8c-0.4,1.8-0.9,2.8-1.4,3.6c-0.5,0.8-1,1.2-1.5,1.7c-0.4,0.4-0.8,0.9-1.1,1.6c-0.3,0.7-0.5,1.6-0.6,3
				c0.2,0.2-0.1,0,0.9,0.7c0.4,0.3,0.7,0.5,1.1,0.7c1,0.6,2,1.2,2.9,1.8c0.5,0.3,1,0.5,1.4,0.8c0.2,0.1,0.5,0.2,0.7,0.4
				c0.3,0.1,0.5,0.3,0.8,0.4c1,0.5,2.1,1,3.1,1.4c0.5,0.2,1,0.4,1.5,0.6c0.5,0.2,1.1,0.4,1.6,0.6c1.1,0.4,2.1,0.7,3.1,1
				c0.3,0.1,0.7,0.2,1,0.3c0.5,0,1,0.1,1.4,0.3c0.2,0,0.4,0.1,0.6,0.1c1,0.2,2,0.4,3,0.6c1.9,0.3,3.9,0.5,5.8,0.6
				c1.1,0.1,2.2,0.1,3.3,0c-1.4-1.5-2.9-3-4.5-4.6c-3.3-3.2-6-6.8-8.1-10.8c-0.4-0.2-0.7-0.3-1.1-0.5c-0.9-0.4-1.7-0.9-2.5-1.3
				c-0.8-0.5-1.7-1-2.5-1.4c-0.7-0.5-1.4-1-2.1-1.5c-0.3-0.3-0.7-0.5-1-0.7l-0.2-0.2l-0.1-0.1L91,13.3c-0.4-0.5-0.8-1-0.9-1.5
				c0.1-0.3,0.2-0.7,0.4-1c-1.4,0.5-2.9,1.5-4.1,2.1c-1.1,0.5-1.9,0.6-2.1-0.5c-0.4-0.2-2.1-0.8-4.4-1.5
				C79.5,13.5,79.4,14.5,79.4,15.5z"/>
			<path class="st3" d="M250.9,8c0,0.1,0.1,0.3,0.1,0.4l0.1-0.5C251,7.9,251,8,250.9,8z"/>
			<path class="st3" d="M41.7,397.4C41.7,397.4,41.7,397.4,41.7,397.4C41.7,397.3,41.7,397.4,41.7,397.4L41.7,397.4
				C41.7,397.4,41.7,397.4,41.7,397.4z"/>
			<path class="st3" d="M122.7-33.4l-0.5,0.7c-0.1,0.1-0.1,0.2-0.2,0.3l0.1-0.1c0,0,0,0,0,0l0,0l0,0l0-0.1L122.7-33.4L122.7-33.4
				L122.7-33.4z"/>
			<path class="st3" d="M121.9-32.2c-0.1,0.1-0.2,0.3-0.2,0.4c0,0,0,0,0,0.1C121.7-31.9,121.8-32,121.9-32.2c0,0,0.1-0.1,0.1-0.2
				C122-32.4,121.9-32.3,121.9-32.2z"/>
			<path class="st3" d="M121.3-31.2C121.3-31.3,121.3-31.3,121.3-31.2c0.1-0.1,0.1-0.2,0.1-0.2c0,0,0,0,0,0c0,0,0.1-0.1,0.1-0.1
				c0,0,0,0,0,0c0,0,0,0,0-0.1c0,0,0-0.1,0.1-0.1c0,0,0,0,0-0.1c0.1-0.1,0.1-0.2,0.2-0.3c0,0,0.1-0.1,0.1-0.1l0.2-0.4
				c0.2-0.2,0.3-0.5,0.5-0.7l0,0l0-0.1c0-0.1,0.1-0.3,0.1-0.4c0.1-0.3,0.2-0.6,0.3-0.9c0.1-0.3,0.2-0.6,0.3-0.9
				c0.1-0.3,0.3-0.7,0-0.7c-0.3-0.2-0.6-0.3-0.9-0.5c-0.6-0.3-1.2-0.6-1.8-0.8c-1.2-0.5-2.2-0.7-3-0.2c1.1,0.5,2.1,1.3,2.9,2.2
				c0.4,0.5,0.8,0.9,1.2,1.5l0.1,0.2c0,0,0,0.1,0,0.2l-0.1,0.2l-0.3,1c-0.2,0.6-0.4,1.3-0.6,1.9l0,0.1l0,0l0,0l0,0l0,0.1
				c0,0,0,0.1,0,0.2c0-0.1,0.1-0.1,0.1-0.1C121.1-30.9,121.2-31,121.3-31.2z"/>
			<path class="st3" d="M121.3-31.3C121.3-31.3,121.3-31.3,121.3-31.3c0,0.1-0.1,0.1-0.1,0.2c0,0,0,0,0,0c0.1-0.2,0.2-0.3,0.3-0.5
				c0,0,0,0,0,0.1C121.4-31.4,121.4-31.3,121.3-31.3z"/>
			<path class="st3" d="M90.5-136.2c-0.6-1.1-1.7-0.8-2.7,0C88.6-136.2,89.4-136.3,90.5-136.2z"/>
			<path class="st3" d="M54.7-61.4L54.7-61.4C54.7-61.4,54.7-61.4,54.7-61.4z"/>
			<path class="st3" d="M49.8-83.6c0,0-0.1,0-0.1,0l0.3,2.5c0,0,0.1,0,0.1,0C49.9-81.9,49.8-82.7,49.8-83.6z"/>
			<path class="st3" d="M44.8-83.2c2.2,1.8,3.8,2,5.1,2.1c-0.1-0.8-0.2-1.6-0.3-2.5C48-83.5,46.4-83.3,44.8-83.2z"/>
			<path class="st3" d="M53.5-56.1C53.5-56.1,53.5-56.1,53.5-56.1L53.5-56.1l0-0.1C53.5-56.2,53.5-56.2,53.5-56.1
				C53.5-56.2,53.5-56.1,53.5-56.1z"/>
			<path class="st3" d="M124.3-35.8l-1.6,2.4l0,0l-0.5,0.8l-0.1,0.1l0,0c-0.1,0.1-0.2,0.3-0.3,0.4c-0.1,0.2-0.2,0.3-0.3,0.5
				c-0.1,0.3-0.3,0.5-0.4,0.8c-0.1,0.2-0.3,0.5-0.4,0.8c0,0,0,0.1,0,0.1c-0.1,0.2-0.1,0.3-0.2,0.4c0,0.1-0.1,0.1-0.1,0.2l0,0
				c1.1,1.6,2.5,3.2,4,4.4c2,1.1,4.5,1.6,6.2-0.6c-2.9-0.8-2.8-2-2.7-3.6c0.1-1.5,0.4-3.2-2.4-4.2c0-2,1.3-3.1,2.5-4
				c0.9-0.8,1.6-1.5,1.5-2.7l-0.3-1c0.2,0.4,0.2,0.7,0.3,1l0.4,1.4c2.6-0.5,4.1-1.5,5.1-3.2c1-1.6,1.4-3.8,1.7-6.2
				c0.2-2.1,0.2-4.3,0.3-6.5L124.3-35.8L124.3-35.8z"/>
			<path class="st3" d="M50.5-78.7c0,0.5,0.1,1,0.1,1.4c0,0.6,0.1,1.1,0.1,1.7c0.2,0.1,0.5,0.1,0.7,0.2c-0.1-0.9-0.1-1.9-0.2-2.9
				C51-78.4,50.8-78.6,50.5-78.7z"/>
			<path class="st3" d="M86.3-83c0.2-0.3,0.5-0.6,0.7-0.9c-0.6,0.1-1.2,0.3-1.6,0.6c0.2-0.9,0.8-2,1.9-2.7c0.5-0.3,1.1-0.5,1.7-0.5
				c0.9-1.2,1.7-2.3,2.5-3.5c-0.6-0.4-1.3-0.6-2.1-0.7c-1.3-0.1-2.4,0.6-3.2,1.3c-0.8,0.7-1.5,1.4-2,2.2c-0.3,0.4-0.6,0.8-0.8,1.2
				c-0.3,0.4-0.5,0.8-0.7,1.2c-0.9,1.7-1.7,3.5-2.6,6c-0.8,2.5-1.7,5.6-2.6,10.1c0.2,3.4,1.3-0.4,2.8-4.5c0.8-2.1,1.6-4.3,2.6-5.8
				c0.5-0.8,1-1.4,1.6-1.8c0.1-0.1,0.3-0.2,0.4-0.2c0.1,0,0.1,0,0.2,0l0.3-0.4L86.3-83z"/>
			<path class="st3" d="M84.9-79.7c-0.6,0.6-1.1,1.4-1.6,2.3c-0.7,1.5-1.4,3.2-1.9,5.1c0.6-1,1.4-1.9,2.3-2.7c0.5-0.4,1-0.7,1.6-1
				c0.5-0.2,1.1-0.2,1.8,0.1c-0.5-0.7-1.1-1.5-1.6-2.2L84.9-79.7z"/>
			<path class="st3" d="M127.4-105.2c1.4,1.2,3,2.4,4.2-3.3c0-0.1-0.1-0.1-0.1-0.1c-1.1,0.9-2.4,2-3.8,3.2
				C127.6-105.3,127.5-105.2,127.4-105.2z"/>
			<path class="st3" d="M123.5-65c0.6-2.2,1.1-4.7-0.7-4.3c-2.1,2.9-2.8,6.6-3.8,9.9c-1,3.3-2.3,6.2-5.7,8c0.4-1.2-0.3-1.1,0.1-2.3
				c-0.7,1.7-1.4,3-1.9,3.9c-0.1,2.2-0.2,4.5-0.1,6.5c0,0.2,0,0.4,0.1,0.6c1.1,1.5,2.3,3.1,3.4,4.6c0,0,0,0,0,0l0,0.1
				c0,0,0.1,0.1,0.1,0.1c0.2,0.2,0.3,0.5,0.5,0.7c0.2,0.3,0.4,0.6,0.6,0.9c0.5,0.1,1,0.3,1.5,0.4c-1.2-1.6-2.4-3.2-3.3-4.8
				c2,0.1,4.4,0.4,6.7,0.8c1.2,0.2,2.4,0.5,3.6,0.7l0.5,0.1l0.2,0.1l0.1,0c0,0,0,0.1-0.1,0.2l-0.6,1.7l-0.3,0.9l-0.1,0.4
				c1.8-2.8,3.7-5.5,5.5-8.3c0.5-0.9,1-1.9,1.5-2.8l0.7-1.4l0.2-0.3l0-0.1c0,0,0,0,0,0l-0.1,0l-0.2-0.1l-0.8-0.6c-1-0.7-2-1.4-3-2.2
				c-0.5,0.5-1.2,1.2-2.6,3.3c0.3-0.9,0.8-2.5,1.5-4.1c-0.8-0.6-1.5-1.2-2.3-1.8c-1.2-2.3-1.6-4.3-1.6-6.2c0-0.3,0-0.5,0-0.8
				C122.5-61.5,123-63.2,123.5-65z"/>
			<path class="st3" d="M105.9-71.6c-0.6,2.8-1.2,5.6-1.7,8.3c0.4,0.1,0.8,0.3,1.1,0.5c1.6,0.7,3.2,1.7,4.3,1.3
				c-0.5-0.2-0.9-0.4-1.3-0.4c1-0.7,1.4-0.5,2.4-1.2c-0.1,1.1-0.5,1.5-1.1,1.7c0.6,0.3,1.2,0.7,1.8,1.2c0.2-0.4,0.3-0.7,0.5-1.1
				c1.4-3,2.7-5.9,4.3-7c-0.1-6,2.4-11.8,5.5-17.1c-0.2,0-0.4,0-0.6,0c-1.7,0.8-3.2,1.5-4.7,2.3c-1.2,1.1-2.1,2.5-2.7,3.9
				c0.1,0.5,0.2,0.8,0.3,1.4l-1.1,1.9c-0.1-1,0.3-2.2,0.8-3.3c-0.2-0.8-0.3-1.6-0.5-2c-2.2,1.3-4.2,2.7-6.1,4
				C106.8-75.5,106.3-73.5,105.9-71.6z"/>
			<path class="st3" d="M119.9-28.1c0.1,0,0.1-0.2,0.1-0.4c0,0.1-0.1,0.2-0.1,0.3C120-28.2,119.9-28.2,119.9-28.1z"/>
			<path class="st3" d="M115-37.8c0-0.1-0.1-0.1-0.1-0.2l-0.4-0.6l-0.1-0.2l-0.1-0.1c0.7,0.9-0.7-1-2.8-3.8c0.1,1.6,0.5,3.1,1.2,4.2
				c0.4,0.6,1.1,1.2,1.9,1.6c0.4,0.2,0.9,0.4,1.5,0.6l-0.2-0.4C115.6-37,115.3-37.4,115-37.8z"/>
			<path class="st3" d="M40.5-13.6L40.5-13.6L40.5-13.6L40.5-13.6C40.5-13.7,40.5-13.7,40.5-13.6C40.5-13.7,40.5-13.7,40.5-13.6
				L40.5-13.6C40.6-13.6,40.5-13.7,40.5-13.6z"/>
			<path class="st3" d="M37.9-15.8c0.1,0.1,0.1,0.1,0.2,0.2c0.1,0.1,0.2,0.1,0.2,0.2C38.2-15.6,38-15.7,37.9-15.8z"/>
			<path class="st3" d="M76,13.2c-0.4,0.3-0.7,0.5-1.3,1.2c-0.3,0.3-0.6,0.8-0.9,1.6c-0.3,0.8-0.5,1.7-0.8,2.8
				C73,19.6,73,20.3,73,21c0.7,0.2,1.4,0.5,2,0.8c0.2-0.8,0.3-1.6,0.4-2.5c-0.1,2,0.5,1,0.6,2.2c-0.1-0.4,0.4-2.7,0.8-4.8
				c0.5-2.1,0.9-3.8,0.9-2.8c-0.6,3.6-0.3,2.9,0.2,1.7c0.5-1.3,1.3-3.1,1.4-2.4c0-0.7-0.1-1.4,0.2-2.4c-0.5-0.2-1.1-0.4-1.6-0.5
				C77,12.1,76.5,12.8,76,13.2z"/>
			<path class="st3" d="M71.8,15c0.2-2.2,0.4-4.7,0.5-6.1c0-0.2,0-0.3,0.1-0.4c0,0-0.1,0-0.1,0c-0.2,2.9-0.5,5.6-0.6,8.3
				C71.7,16.2,71.7,15.6,71.8,15z"/>
			<path class="st3" d="M28.7-23.3c0.7,0.6,1.5,1.2,2.2,1.8c1.5,1.2,3,2.4,4.4,3.6c-2.4-1.9-4.6-3.7-6.6-5.3
				C28.7-23.2,28.7-23.3,28.7-23.3z"/>
			<path class="st3" d="M115.8,316.9c-0.1,0.5-0.2,1-0.3,1.4c6.7,6.9,11.3,14,14.7,22.4c1.3-1.6,2.7-3.2,4.1-4.9
				c-3.5-8.7-8.4-15.1-15.6-23.1C116.4,312.3,116.2,314.6,115.8,316.9z"/>
			<path class="st3" d="M105.7,308.4c0.8-0.1,1.7-0.1,2.5-0.1c0.8,0.1,1.5,0.1,2.1,0.3c2.6,0.5,4.5,1.4,5.9,3.4
				c-0.7-1.7-0.9-2.4-0.7-2.7c-1.4-1.6-3.2-3.4-5.1-5.4c-0.2,0-0.5,0-0.8,0c-1.2,0-2.7,0.3-4.3,0.7c-1.5,0.5-2.7,1.2-3.8,1.7
				c1,0.7,2,1.5,2.9,2.2C104.9,308.5,105.3,308.5,105.7,308.4z"/>
			<path class="st3" d="M119.8-28.3C119.8-28.3,119.8-28.3,119.8-28.3C119.8-28.3,119.8-28.3,119.8-28.3L119.8-28.3z"/>
			<path class="st3" d="M85.2,8.7c0.2-1.6,0.5-3.6,1.4-5.6c0.1-2.1-0.3-3-0.8-3.2C85.4-0.2,85,0,84.6,0.3l-0.2,11.5
				C84.9,11.2,85,10.1,85.2,8.7z"/>
			<path class="st3" d="M119.9-28.1C119.9-28.2,120-28.2,119.9-28.1C120-28.2,120-28.2,119.9-28.1C119.9-28.2,119.9-28.1,119.9-28.1
				z"/>
			<path class="st3" d="M184.7,302.5c-3.6,3.5-6.9,7.1-8.8,9.2c-2.3,2.5-4.3,4.8-6.1,7l0.7,6.9c2.9-5.4,6.8-8.7,9.4-11.3
				c0,0.8-0.1,1.7-0.3,2.4c3.7-3.6,8-7.1,13-10.8v0c0.3-0.2,0.6-0.3,0.8-0.4c0,0,0,0-0.1,0c-0.8-0.2-1.9-0.8-3.4-1.8
				c-0.7-1.6-1.5-3-2.4-4.3C186.6,300.5,185.7,301.5,184.7,302.5z"/>
			<path class="st3" d="M195.5,17.5c1.1,0,2.3-0.1,3.4-0.1c2.1-0.2,4.1-0.4,6.3-0.6c1.4-0.2,2.7-0.4,4.1-0.6
				c1.3-0.2,2.7-0.4,3.9-0.7c2.5-0.6,5-1.2,7.4-2c4.9-1.5,9.3-3.5,13.4-5.7c0.3-0.2,0.3-0.2,0.4-0.2l0.2-0.1l0.5-0.3
				c0.3-0.2,0.7-0.4,0.7-0.5c0.1,0,0.1-0.1,0.2-0.1c-2.7-0.1-5.4-0.1-7.7,0.2c-5.1,0.6-19.2,5.7-19.2,5.7L209,4.9
				c-0.6,0.2-1.2,0.3-1.8,0.5c-0.6,0.2-1.2,0.3-1.8,0.4c-0.6,0.1-1.1,0.2-1.7,0.4c-1,0.2-2,0.4-3,0.5c-1,0.1-2,0.3-3.1,0.3
				c-0.3,0-0.5,0-0.8,0c-0.6,3.6-1.7,7.2-3.2,10.5C194.2,17.5,194.8,17.5,195.5,17.5z"/>
			<path class="st3" d="M120.8-30.3C120.8-30.4,120.8-30.4,120.8-30.3C120.8-30.4,120.8-30.4,120.8-30.3
				C120.8-30.4,120.8-30.4,120.8-30.3z"/>
			<path class="st3" d="M120.8-30.4C120.8-30.3,120.8-30.3,120.8-30.4C120.8-30.3,120.8-30.4,120.8-30.4
				C120.8-30.4,120.8-30.4,120.8-30.4z"/>
			<path class="st3" d="M120.6-29.9c-0.1,0.2-0.1,0.3-0.2,0.5l0,0c0-0.1,0.1-0.1,0.1-0.2c0.1-0.1,0.1-0.3,0.2-0.4c0,0,0,0,0-0.1
				c0,0,0,0,0,0c0,0,0,0,0,0C120.7-30.1,120.6-30,120.6-29.9z"/>
			<path class="st3" d="M239.9,9.6c0.2,1.6,0.9,3.8,0.6,5.2c1,1.3,2.1,1.9,2.6,1.3c0.5-0.5,0.7-2.3,0.4-5.7
				c-0.3-0.4-0.7-0.7-1.1-1.1c-0.1-0.8-0.2-1.6-0.2-2.4c-0.3,0-0.6-0.1-0.9-0.1c0.1,0.2,0.1,0.4,0.2,0.5
				C239.9,6.8,239.7,8,239.9,9.6z"/>
			<path class="st3" d="M144.7,352.6c1.2-0.6,2.3-1.2,2.4,0.2c1.5-2.3,3.2-4.6,5.1-6.9c-0.2-2.5-0.4-4.9-0.4-7.4
				c-1.3,1.5-2.7,3.1-4.1,4.9c-1.8,2.3-3.5,4.5-4.7,6.2c-0.4,0.7-0.7,1.4-1.1,2.1C142.3,353.6,143.6,353.1,144.7,352.6z"/>
			<path class="st3" d="M92.4,31.4c-0.9-0.4-1.8-0.8-2.7-1.3c-0.9-0.4-1.8-0.9-2.6-1.4c-0.8-0.4-1.6-0.9-2.4-1.4l-1.2-0.7l-0.6-0.4
				l-0.2-0.1l-0.1-0.1l0.1,0.2l0.4,0.3l0.9,0.7l1.8,1.4c0.6,0.5,1.2,0.9,1.8,1.4c0.7,0.5,1.4,0.9,2.1,1.4c1.9,1.3,4.1,2.5,6.5,3.6
				c0.2-0.8,0.7-1.4,1.3-1.7c-0.8-0.2-1.5-0.5-2.2-0.8C94.3,32.2,93.2,31.8,92.4,31.4z"/>
			<path class="st3" d="M140.2,353.8c0.2,0.1,0.3,0.2,0.5,0.3c0.4-0.8,0.9-1.6,1.3-2.4c0-0.2-0.1-0.2-0.1-0.4
				c0.3-0.4,0.8-1.1,1.2-1.7c3.5-6.5,7-12.2,7.9-18.3c-1.6,1.4-3.5,3.6-5.6,6.1c0.2,0.4,0.3,0.8,0.5,1.2c-0.4,1.2-0.9,0.7-1.4-0.1
				c-1,1.2-1.9,2.5-2.9,3.8C141.3,346.2,140.9,350,140.2,353.8z"/>
			<path class="st3" d="M41.5,26.8c0-0.1,0-0.1,0-0.2c-0.1,0-0.1,0-0.2,0C41.4,26.6,41.5,26.7,41.5,26.8z"/>
			<path class="st2" d="M82.2-10.5c0,0,0,0.1-0.1,0.1c0,0,0,0,0,0L82.2-10.5z"/>
			<path class="st2" d="M72.7,8.5c0.2,0,0.3,0.1,0.5,0.1c0.1-0.7,0.2-0.5,0.4-0.4c0-3.8,0.5-8.8,1-13.3c0,0.7-0.2,1.5-0.2,2.2
				c0.3,0.6,0.8-1.7,1-4.8c0.7-4.5,0.6-5.5,0.4-5.7c-0.2-0.2-0.6,0.5-0.6-1.1c-0.3,1.1-0.6,2.3-0.8,3.4C73.5-4,72.8,2.4,72.3,8.4
				c0,0,0.1,0,0.1,0C72.6,7.4,72.7,7.2,72.7,8.5z"/>
			<path class="st2" d="M81.4-8.8c0.3-0.6,0.5-1.1,0.8-1.6C81.9-10.6,81.7-10.2,81.4-8.8z"/>
			<path class="st2" d="M43-11.7c-0.1-0.1-0.2-0.1-0.3-0.2l0,0C42.8-11.8,42.9-11.8,43-11.7C43-11.7,43-11.7,43-11.7z"/>
			<path class="st2" d="M43.7,8.1c1.2-0.2,2.6-0.5,4.2-0.7c-0.5-0.2-1.1-0.3-1.8-0.5c-0.6-0.1-1.2-0.2-1.8-0.3
				c-0.3,0-0.5-0.1-0.8-0.1c-0.3,0.4-0.7,0.9-1.2,1.4C42.7,8.1,43.2,8.2,43.7,8.1z"/>
			<path class="st2" d="M82.2,1.9c-0.4-0.2-0.5-1.1-0.2-3.9c0.4-1.1,1.5-3.7,1.6-6.2c-0.6,0.5-0.9-1.8-1.3-2.2l-1,2.8
				c0.1-0.6,0.2-0.9,0.3-1.2c-0.9,2-1.7,4.4-2.5,6.6C78.5-1.1,78,0,77.6,1c-0.5,1-1,1.9-1.7,3.1c-0.4,3.6-0.2,5,0.1,5.4
				c0.3,0.3,0.7-0.3,1.1-1.1c0.5-2,1.1-4,1.6-6c-1,5.4-0.7,5.4-0.3,4.7c0.4-0.8,1-2.2,0.7-0.3c-0.5,1.5-0.9,2.6-1.3,3.5
				c0.6,0.2,1.1,0.4,1.6,0.5c0.1-0.6,0.4-1.4,0.8-2.3c-0.2,1-0.3,1.8-0.4,2.5c2.3,0.8,4,1.4,4.4,1.5c0-0.1,0-0.2-0.1-0.4
				c0.1-0.1,0.1-0.1,0.2-0.2l0.2-11.5c-0.2,0.2-0.5,0.4-0.7,0.6C83.2,1.5,82.5,2.1,82.2,1.9z"/>
			<path class="st2" d="M68.2,7.3c-0.5-1.8-1.3-3.8-1.3-7.2c-0.8,0.7-1.6,1.2-2.3,1.8l-1.4,0.5l-0.7,0.3c-0.3,0.1-0.6,0.2-0.9,0.3
				l-1.9,0.6l-0.5,0.1l-0.9,0.2l-1.8,0.3c0.6,0,1.1,0.1,1.6,0.1c0.3,0,0.5,0,0.7,0.1c0.2,0,0.5,0,0.6,0.1c0.5,0.1,0.9,0.2,1.2,0.3
				c0.7,0.2,1.1,0.4,1.3,0.6c0.4,0.4,0.2,0.7-0.2,1.1c1.2,0,2.4,0.1,3.5,0.3C66,6.8,67.1,7,68.2,7.3z"/>
			<path class="st2" d="M108.8,30c1.6,1.5,3.1,3.1,4.5,4.6c2.5-0.1,4.9-0.3,7.2-0.6c1.6-0.3,3.2-0.6,4.8-1c1.5-0.4,3-0.8,4.4-1.3
				c1.5-0.5,2.9-1,4.3-1.6c0.7-0.3,1.4-0.6,2.1-0.9c0.5-0.2,1-0.4,1.4-0.7c-0.7-4-1.4-7.6-2.2-11.1c-1.1,0.3-2.2,0.5-3.2,0.6
				c-0.9,0.5-1.8,0.9-2.7,1.4c-0.9,0.4-2,0.8-3,1.2c-2,0.8-4.2,1.4-6.5,1.9c-2.3,0.5-4.7,0.8-7,1c-2.4,0.2-4.8,0.2-7.1,0
				c1.9,0,3-0.1,3.4-0.4c0.4-0.2,0-0.5-0.8-0.9c-0.8-0.4-2.1-0.8-3.7-1.4c-1.3-0.5-2.6-1-4-1.7C102.8,23.2,105.5,26.8,108.8,30z"/>
			<path class="st2" d="M134.6,49.1c-1,0.3-1.9,0.6-2.8,0.9c-1.5,0.5-2.9,0.9-4.1,1.3c5.9,8.4,9.4,17.2,12.1,32.4
				c2.9-12.6,2.2-24.7,0.6-36.8c-1,0.4-2,0.8-2.9,1.2C136.4,48.4,135.5,48.7,134.6,49.1z"/>
			<path class="st2" d="M131.4,34.2c-1.9,0.5-3.9,1-5.9,1.3c-2.1,0.3-4.3,0.6-6.6,0.7c-1.3,0.1-2.6,0.1-3.9,0c1,1.1,1.9,2.1,2.6,2.8
				c3.2,3.5,6,6.7,8.4,9.8c0.7-0.1,1.4-0.1,2-0.2c1.8-0.2,3.6-0.5,5.4-0.8c0.9-0.2,1.8-0.3,2.6-0.5c0.8-0.2,1.7-0.4,2.5-0.6
				c0.6-0.2,1.2-0.3,1.8-0.5c-0.4-2.9-0.8-5.8-1.3-8.7c-0.3-2-0.6-4-0.9-5.9c-0.5,0.2-1,0.4-1.5,0.6
				C134.9,33.1,133.2,33.7,131.4,34.2z"/>
			<path class="st2" d="M221.9-43.6c-0.1,1.1-0.1,2.3-0.2,3.5c2-0.5,2.7-1.5,3-2.6c0.3-1.1,0.1-2.4-0.2-3.4
				c-0.2-0.7-0.3-1.3-0.4-1.8c-0.4,0-0.7,0.1-1.1,0.2c-0.4,0.1-0.7,0.1-1,0.2c0,0.2,0,0.4,0,0.6C222-45.9,222-44.8,221.9-43.6z"/>
			<path class="st2" d="M227.1-48.2c-0.3,0-0.6,0-0.8,0.1c0.2,0.1,0.4,0.2,0.6,0.3C227-48,227.1-48.1,227.1-48.2z"/>
			<path class="st2" d="M249.6-31.7c-1.1-0.8-2.2-1.7-3.3-3.1c-2,3.1-3.8,7-4.9,10.9c-1.1,3.9-1.8,7.8-2,11.6
				c0.2,3.5-1.4,3.2-3.5,3.7c-1,0.2-2.2,0.7-3.1,1.5c-0.9,0.9-1.6,2.2-1.4,4.3c-0.2-0.2-0.2-1.4-0.1-2.9c0.2-1.6,0.3-3.6,0.5-4.9
				c-1.1,0.5-1.4,2.6-1.8,3.9c-0.2,0.6-0.3,1.1-0.8,1.1c-0.6,0.1-1.3-0.2-2.2-1.2c0.6-0.2,1.1-0.4,1.5-0.5c0.3-0.1,0.5-0.2,0.6-0.3
				c0.3-0.2,0.5-0.5,0.5-0.7c0.1-0.5-0.3-1-0.8-1.5c-1-1.1-2.8-2.3-1.9-3.8l-0.9,0.7l-0.2,0.2l-0.1,0.1l-0.2,0.1l-0.7,0.5
				c-0.3,0.2-0.4,0.3-0.7,0.5c-0.5,0.3-1,0.6-1.5,0.9c-1,0.6-2,1.2-3,1.7c-1,0.5-2,1.1-3,1.6c-1,0.5-1.9,0.9-2.8,1.4
				c-1.8,0.9-3.4,1.6-4.6,2.3c4.4-0.8,6.2-1,6.9-0.5c0.7,0.5,0.2,1.6-0.4,2.6c-0.6,1-1.2,1.9-0.5,2.1c0.3,0.1,1,0,2.2-0.3
				c0.6-0.2,1.3-0.4,2.1-0.8c0.8-0.4,1.7-0.8,2.8-1.4c-0.8,0.6-1.6,1.2-2.4,1.8c-0.9,0.6-1.8,1.1-2.7,1.7c-1.9,1.1-4,2-6.2,2.8
				c-0.6,0.2-1.2,0.4-1.8,0.6l0.1,7.5c0,0,14-5.1,19.2-5.7c2.4-0.3,5.1-0.3,7.7-0.2c0.2-0.1,0.4-0.3,0.5-0.4
				c0.4-0.3,0.9-0.7,1.3-1.2c0.8-0.9,1.5-1.9,2.1-3.3c0.1-0.4,0.2-0.7,0.4-1c-0.1,0.3-0.3,0.6-0.4,1c-0.3,1.5,0.8,3.6,1.4,5.3
				c0.3,0,0.6,0.1,0.9,0.1c-0.1-1.5-0.3-3-0.3-4.5c0.3,0.3,0.6,1.4,0.8,2.4c-0.4-2.8,0.1-4.2,0.9-5c0.9-0.9,2.3-0.8,3.6-0.8
				c-0.7,3.2-0.1,5.7,0.1,8c0,0.2,0.1,0.4,0.1,0.7c0.9,0.2,1.8,0.3,2.5,0.5c0.2,0,0.3,0,0.5,0c0.1-0.7,0.1-1.4,0.2-2.1
				c-0.1-0.5-0.3-1-0.4-1.6l-0.5,2.4c0-1.3-0.1-2.6-0.1-3.8c0.3,0.5,0.5,0.9,0.6,1.5c0.3-1.3,0.6-2.6,0.9-3.8
				c-0.1,1.5-0.3,3.4-0.5,5.4c0.2,0.6,0.3,1.3,0.4,1.9c0,0,0.1,0,0.1-0.1l0-0.3c0,0.1,0,0.2,0,0.3c0.5-0.3,0.9-0.9,0.9-1.5v-36.2
				c-0.1-0.1-0.3-0.2-0.4-0.3C251-30.7,250.3-31.2,249.6-31.7z"/>
			<path class="st2" d="M218-46.1c-0.3,0.2-0.6,0.3-0.9,0.5c0.1,0.2,0.2,0.4,0.4,0.5C217.7-45.5,217.8-45.8,218-46.1z"/>
			<path class="st2" d="M154.2,39.2c1-0.7,2-1.4,2.8-2.1c0.6-0.5,1.1-0.9,1.6-1.3c0.5-0.4,0.9-0.9,1.3-1.3c0.8-0.8,1.6-1.6,2-2.2
				c0.5-0.6,0.8-1.2,1-1.6c0.3-0.9,0-1.3-1.1-1.2c-0.6,0.1-1.4,0.3-2.4,0.7c-1.1,0.4-2.4,0.9-4,1.5c-0.3,2-0.6,4-1,6.1
				C154.4,38.2,154.3,38.7,154.2,39.2z"/>
			<path class="st2" d="M182.9,28.8l-1.9-0.4c-1.3-0.3-2.5-0.5-3.7-0.8c0.8-0.4,1.7-0.8,2.5-1.3c-1-0.2-2-0.3-3.1-0.5l-0.8-0.1
				c-0.1,0-0.1,0-0.1,0l-0.1,0.1l-0.4,0.5c-0.2,0.3-0.5,0.6-0.7,0.9c0.3-1.8,0.6-2.9,1-3.8c0.4-0.8,0.9-1.3,1.3-1.9
				c0.1-0.1-0.1-0.2,0.8,0c0.6,0.1,1.2,0.2,1.8,0.2c1.2,0.1,2.2,0.2,3.2,0.3c1.9,0.1,2.9-0.1,3.2-0.5c0.1-0.2,0-0.4-0.3-0.7
				c-0.2-0.1-0.4-0.3-0.7-0.5c-0.3-0.2-0.7-0.4-1.2-0.6c-1-0.5-2.3-1-3.9-1.8c-0.4-0.2-0.8-0.4-1.3-0.6l-0.2-0.1l-0.1,0l0,0l0-0.1
				l0-0.1c0-0.2-0.1-0.4-0.1-0.6c0.2-0.1,0.3-0.3,0.6-0.3c1.6,0.3,3.1,0.5,4.7,0.7c0.8,0.1,1.6,0.2,2.3,0.3l2.1,0.1
				c1.4,0.1,2.8,0.1,4.1,0.2c0.6,0,1.1,0,1.6,0c1.5-3.3,2.6-6.9,3.2-10.5c-0.9,0-1.7,0.1-2.6,0.1l-0.8,0l-1-0.1
				c-0.6,0-1.3-0.1-1.9-0.2s-1.3-0.1-1.9-0.2l-1-0.1l-1.1-0.2c-1.4-0.3-2.8-0.6-4.2-1c-0.5-0.1-0.4-0.1-0.5-0.1l-0.2-0.1
				c-0.1,0-0.2-0.1-0.3-0.1c-0.2-0.1-0.4-0.2-0.6-0.4c-0.4-0.3-0.7-0.7-1-1.2c0.6-2.4,0.4-3.6-0.3-5.8c-0.5,0.9-0.8,1.7-1.2,2.7
				c-0.3-1.1,0.2-1.4,0.7-2c0.2-0.3,0.5-0.7,0.6-1.2c0.1-0.6-0.1-1.3-0.5-2.4c-1.4,1.4-1.9-2.1-2.5-4.8c-0.6-2.7-1.4-4.4-2.1,2.4
				c-0.4-4.1,0.2-4.6,0.7-5.1c0.3-0.3,0.5-0.6,0.6-1.6c0.1-0.9,0.1-2.5-0.2-5.4c-11.9,13.2-16.3,27.6-20.3,51.5
				c1.1-0.7,2.3-1.4,3.4-2.1c1.2-0.8,2.3-1.6,3.5-2.4c0.4-0.3,0.9-0.6,1.3-0.9c0.3-0.2,0.2-0.1,0.2-0.2l0.1,0
				c0.3-0.1,0.5-0.3,0.6-0.5c0.3-0.5,0.1-1.4-1.3-3.8c-1-1.2-2.3-2.5-3.1-2.5c-0.2,0.2-0.4,0.4-0.8,0.5c0.2-0.4,0.4-0.5,0.8-0.5
				c0.8-0.9,0.7-2.6,0.6-4.4c0-1.7,0-3.5,1-4.2c0.2,2,0.3,5.1,0.9,7.9c0.6,2.8,1.8,5.1,3.3,6.7c-1-2.6-1.9-5.4-2.7-8.4
				c1.2,1.3,1.1,3.4,1.6,4.8c0.7,1.4,1.4,2.2,1.8,2.3c0.4,0.1,0.4-0.5-0.1-2.3c-0.4-1-0.8-1.3-1.1-1.8c-0.4-0.6-0.8-1.4-1.2-3.7
				C164,12,164,7.6,164.2,2.7c0-0.5,0-1,0.1-1.5c0,0.5,0,1-0.1,1.5c0.1,2.2,0.9,4.9,1.1,5.9c0.4-0.1,0.2-2.1,0.1-3.9
				c-0.1-1.8,0-3.5,0.7-2.8c0,3.1,0.1,6.1,0.3,8.9c0.7-3.2,1.3-3.1,1.6-3.4c0.2-0.2,0.3-0.4,0.5-1.4c0.2-1.2,0.5-2.8,0.9-5.2
				l0.1,1.4c0.2-0.5,0.5-1,0.8-1.5c0.2-0.3,0.3-0.5,0.5-0.8c0.2,0,0.4,0,0.6,0c0.8-0.2,1.4-0.7,1.9-2.7l-0.2,6.8
				c0.6-5.7,0.8-4.5,0.9-2.5c0.1,1,0.1,2.3,0.2,3.2c0.1,0.9,0.3,1.3,0.6,0.8l-0.2,0.5c0.5,1.2,0,3.9-0.3,8.1
				c0.2,2.2,0.6-0.6,1.1-2.8c0.3-1.1,0.6-2.1,0.8-2.4c0.3-0.3,0.6,0.1,0.8,1.7c-0.3,1.6-0.4,3.3-0.6,4.8c-0.2,1.5-0.3,2.9-0.6,4.3
				c-0.1-1.7-0.4-3.2-0.9-1.6c-0.4,2.9-0.3,3.5-0.2,4.1c0.1,0.6,0.2,1-0.5,3.7c0.1,1.5,0,3.7,0.1,4.5c0,0,0.1,0,0.1,0l2.9,0.8
				c1.6,0.4,3.3,0.8,4.9,1.1c0.7-0.7,1.5-1.5,2.2-2.2c0.3-0.3,0.6-0.6,0.8-0.8c-0.3,0-0.5-0.1-0.8-0.1
				C184.1,28.9,183.6,28.9,182.9,28.8z"/>
			<path class="st2" d="M176.2-20.4c0.4-0.1,0.8,1.3,1.1,2.3c0.4,1.4,0.7,2.2,1.1-0.5c-0.4-0.5-0.4-2.1-0.3-3.9
				C177.5-21.8,176.8-21.1,176.2-20.4z"/>
			<path class="st2" d="M177,31.2c-0.8-0.2-1.7-0.5-2.4-0.7c0,0,0,0,0-0.1c0-0.1,0-0.1-0.1-0.2c-0.4-0.1-0.7-0.4-0.8-0.8
				c-0.2-0.3-0.2-0.7-0.3-1c-0.2-0.7-0.5-1.4-1.1-1.8c-0.1,0-0.1-0.1-0.2-0.1c-0.1,0.1-0.1,0.1-0.2,0.2c-0.1,0.1-0.2,0.3-0.3,0.4
				c-0.2,0.3-0.4,0.6-0.6,0.9c0.1,0.6,0.2,1.2,0.3,2c-0.2-0.8-0.3-1.4-0.4-1.8c-0.3,0.5-0.5,0.9-0.7,1.4c0.9,3,0.6,2.9,1.1,4.4
				c0,0.1,0.1,0.2,0.1,0.3c0-0.1-0.1-0.2-0.1-0.3c-0.6-1.7-1-3-1.3-3.9l-0.1,0.1c0,0.4,0.1,0.8,0.2,1.2c0.5,1.5-0.1,0.7-0.4,0.7
				c-0.1,0-0.2,0.1,0.1,0.7c0.3,0.6,1,1.6,2.1,3.5c0,0-0.2-0.2-0.4-0.6c-0.2-0.3-0.6-0.7-0.9-1.1l-0.2-0.2c0,0-0.1-0.1-0.1-0.1
				l-0.4,0.2c-0.3,0.1-0.6,0.2-0.9,0.4l-0.1,0.1l-0.3,0.2l-0.7,0.4c-0.5,0.3-0.9,0.6-1.4,0.9c-1.8,1.1-4.1,2.6-6.4,3.9
				c-2,1.1-4,2.3-6.3,3.5c-1.8,13-2.8,26.1,0.3,39.7c3.9-22.2,9.5-30.8,22.1-44.5c1.5-1.6,3.7-4.1,6.3-6.8c0,0,0,0-0.1,0
				C180.4,32,178.7,31.6,177,31.2z"/>
			<path class="st2" d="M70.6,345.2c-0.5,0.6-1,1.2-1.4,1.8l-0.2,0.2c0,0.3,0.1,0.6,0.1,1c0.4,0.1,0.7,0.2,1.1,0.3
				C70.1,347.6,70.1,346.6,70.6,345.2z"/>
			<path class="st2" d="M44.7,344.8c2.4,1.8,2.8,2.6,2.4,2.8c-0.5,0.2-2-0.2-4-0.7c-0.5-0.1-1.1-0.3-1.6-0.4v0.3
				c0,1.2,1.1,2,2.2,1.8c4.9-1,14.5-2.3,21.6-1.4c1,0.1,2.2,0.4,3.6,0.8c-0.1-0.6-0.2-1.1-0.2-1.7l-0.1-1l-0.1-0.5
				c0-0.1,0,0,0.1-0.1l0.3-0.1c0.2-0.1,0.4-0.2,0.6-0.3c0.4-0.2,0.8-0.5,1.3-0.7c0.9-0.5,1.8-1.1,2.7-1.7c1.8-1.2,3.5-2.8,4.9-4.4
				c-1.6-0.1-3,0-3.9-0.1c-1-0.1-1.6-0.3-2-0.7c-0.9-0.8-1.3-2.6-3-5.1c2.3-4.2,4.4-6.3,6.1-7.4c0.4-0.3,0.8-0.5,1.2-0.6
				c0.4-0.1,0.8-0.2,1.1-0.3c0.3-0.1,0.7-0.1,1-0.1l0.8,0c1,0.1,1.9,0.3,2.6-0.1c0.7-0.5,1.2-1.7,1.8-4.2c0,1.1-0.6,2.7-1,4
				c-0.2,0.7-0.3,1.2-0.2,1.5c0.1,0.3,0.5,0.4,1,0.1c1-1.2,1.1-3.6,1.4-5.9l0.1-8.7c0.1-8.7-6.1-16.2-14.7-17.5
				c-3.2-0.5-7.5-0.8-12-0.3c-3.5,0.4-7.1,0.8-12.2,1.6c-2.7,0.4-4.8,2.7-4.8,5.4v44.9c0.3,0,0.6,0,0.9,0
				C43.2,344.5,43.9,344.7,44.7,344.8z"/>
			<path class="st2" d="M82.9,336.3c-0.2,0.3-0.4,0.5-0.5,0.7c-0.2,0.2-0.3,0.4-0.4,0.6c-0.1,0.2-0.3,0.4-0.4,0.7
				c-0.2,0.3-0.4,0.6-0.7,1c-0.3,0.4-0.8,1-1.5,1.8c-0.7,0.8-1.6,1.7-2.9,3.1c1.6-0.5,3.1-0.6,4.3-0.8c1.1-0.2,2-0.2,2.6-0.2
				c-0.8,1.4-1.8,2.8-2.5,4.2c-0.3,0.7-0.6,1.3-0.8,1.9c-0.2,0.6-0.3,1.1-0.4,1.7c0,0.2,0,0.3,0,0.5c2.1,0.7,3.8,1.3,4.5,1.6
				c0.1-0.2,0.2-0.5,0.3-0.7l0.4-22.5c-0.1,1.2-0.2,2.5-0.3,4C83.9,334.9,83.3,335.7,82.9,336.3z"/>
			<path class="st2" d="M134.4,394.1C134.4,394.1,134.4,394.1,134.4,394.1C134.4,394.1,134.4,394.1,134.4,394.1
				C134.4,394.1,134.4,394.1,134.4,394.1z"/>
			<path class="st2" d="M133.8,391.7c0,0.1,0,0.1,0.1,0.2l0,0c0,0,0,0,0-0.1C133.8,391.8,133.8,391.8,133.8,391.7
				C133.8,391.7,133.8,391.7,133.8,391.7C133.8,391.7,133.8,391.7,133.8,391.7z"/>
			<path class="st2" d="M120.5,351.2c-1.7,0.3-3.3,0.6-4.7,0.8l2.2,5.1C119.2,355.1,120.1,353.1,120.5,351.2z"/>
			<path class="st2" d="M117.9,357.6c-1.6-1.8-2.7-3.8-3.7-5.3l-0.5,0.1c0.3,1.6,0.7,3.3,1,5c0.2,0.3,0.4,0.6,0.7,1.1
				c-0.1-0.2-0.3,0-0.4,0.2c0.1,0.6,0.2,1.1,0.3,1.7c0.3,0,0.5,0,0.8,0.2c0.1-0.2,0.3-0.4,0.4-0.6
				C116.9,359.2,117.4,358.4,117.9,357.6z"/>
			<path class="st2" d="M134.2,362.8c-1-0.1-2,0.3-3.3-0.4l-0.4,0.9l0.4-0.9c-0.3-0.1-0.5-0.3-0.8-0.5c0.3,0.1,0.6,0.1,0.9,0.2
				l2.4-6.2l0.6-0.3l-3,6.5c1.6,0.3,2.3,0.3,2.8-0.7c0.4-0.9,0.6-2.8,0.9-5.8c-0.3-1.1-0.6-2.3-0.8-3.4c-0.1-0.1-0.1-0.1-0.2-0.2
				c0,0,0,0-0.1,0c-0.6,0.4-1.1,0.6-1.4,0.3c-2.6,6.7-4.5,13.1-6.3,18.8c0.7,1.4,1.3,2.8,1.6,4.2c0.1,0.5,0.3,1,0.4,1.4
				c-0.1-0.4-0.2-1-0.4-1.4c-0.5-1.6-1.2-3.1-1.8-3.7c-0.1,0.2-0.1,0.3-0.2,0.5c-0.2,0.8-0.5,1.5-0.7,2.2l-0.2,0.5
				c-0.1,0.2-0.1,0.4-0.1,0.5l0,0.1c0,0.8,0,1.5,0,2.3c0.1,0.1,0.1,0.2,0.2,0.3c0.1,0.2,0.2,0.4,0.4,0.6l0.1,0.1l0.1,0.1l0.4,0.5
				l0.3,0.4c0,0,0.1,0.1,0.1,0.1l0.8,1c0,0,0,0,0,0l0.1,0.1c0,0,0,0,0,0c0,0,0,0,0,0c0.1,0,0.3,0.2,0.4,0.3c0.4,0,0.5,0,0.9-0.5
				c0.2-0.2,0.3-0.4,0.5-0.6c0.2-0.2,0.3-0.4,0.5-0.7c0.4-0.6,0.7-1.2,1.1-1.9c1.3-2.4,2.5-4.9,3.8-6.4c0.1-0.2,0.1-0.4,0.2-0.6
				c0-0.1,0.1-0.1,0.1-0.2c0.1-1.9,0.6-4.1,1.4-6.3C135.5,363.1,134.9,362.9,134.2,362.8z"/>
			<path class="st2" d="M100.2,344.6c0.6-0.3,1.4-0.3,2.2,0.1c0.7,0.4,1.4,1.1,1.9,1.9c0.5,0.8,0.9,1.6,1.3,2.5
				c0.7,1.8,1.3,3.6,1.8,5.5c0.3-0.3,0.6-0.5,0.9-0.8c-0.6-2.7-1.3-4.9-1.8-6.6c-0.6-1.7-1.1-2.7-1.2-3.1c1.7,3,2.8,4.6,3.9,4.7
				c1,0.8,1.8,0.2,2.4-1.8l-0.3-1.2c0.4,0.2,0.7,0.5,1.1,0.7c-0.5-2-1.1-4-1.8-5.9c0.3-1.5,0.9-0.4,1.4,1.4c0.5,1.7,0.8,4,0.7,4.7
				l-0.3-0.2c0.4,1.6,0.8,3.3,1.2,4.9c0.2,0.3,0.5,0.5,0.7,0.9c0.5-0.1,1.1-0.1,1.7-0.2l-0.1-0.3c0.8,0.4,1.5-1.9,1.5-4.2
				c0.1-2.4-0.5-4.8-1.8-5.2l0.9-1c-1.1,0.7-3-2-3.3-4.8c0.9,1.1,0.9,0,0.6-1.7c-0.3-1.6-0.8-3.7-0.8-4.7c3.2,4.9,5.9,10.2,8.8,16.2
				c-0.4,0.6-1.2,1.7-1.9,0.2c1.2,2.4,2.1,2.1,3.1,1.8c0.9-0.3,1.8-0.7,2.7,2.1c0,0,0.1,0,0.1,0c1.2-1.5,2.5-3.6,3.7-6.1
				c0.5-2.4-1.4-0.3-2.8,0.6c1.2-1.4,2.4-2.8,3.6-4.2c-3.4-8.5-7.9-15.6-14.7-22.4c-0.2,0.9-0.5,1.6-0.9,2.1c-0.7,0.7-1.7,0.8-4-0.4
				c0.8-0.9,0.6-3.3-0.6-5.9c-0.4-0.8-1-1.7-1.8-2.5c-0.4-0.3-0.7-0.6-1.1-0.9c-0.1-0.1-0.2-0.1-0.3-0.2c-0.8-0.5-1.7-0.8-2.6-1
				c-0.8-0.2-1.6-0.2-2.2-0.1c0.6-0.2,1.4-0.5,2.4-0.8c-0.9-0.7-1.9-1.5-2.9-2.2c-1,0.5-1.9,0.9-2.8,0.8c-1.5,0.9-1.5-0.1-1.2-1.4
				c-0.8,0.5-1.4,1.4-1.4,2.5v28.2c0.4-0.6,0.8-1.1,1.2-1.7c0.8-1.1,1.7-2.1,3-3c0.6-0.4,1.3-0.8,2.2-0.9c0.9-0.1,1.8,0.2,2.5,0.7
				c1.5,1,2.4,2.5,3.3,4.1c0.8,1.5,1.5,3.2,2.1,4.8c0,4.3-1.1,3.4-2.3,1.7c-0.6-0.8-1.4-1.8-2-2.3c-0.6-0.5-1.2-0.6-1.1,0.2
				c-0.7-0.9-1.5-1.7-2.6-1.9c-1-0.1-1.9,0.3-2.6,0.8c0.1-0.6,0.7-1.6,1.8-2.2c0.5-0.3,1.2-0.4,1.9-0.3c0.7,0.1,1.2,0.4,1.7,0.8
				c0.9,0.7,1.5,1.3,1.8,1.2c0.3-0.1,0.3-1-0.4-3.1c-0.9-0.8-1.9-1.6-3.2-1.7c-1.3-0.1-2.4,0.6-3.2,1.2c-0.8,0.7-1.4,1.4-2,2.2
				c-0.3,0.4-0.6,0.8-0.8,1.2c-0.3,0.4-0.5,0.8-0.7,1.2c-0.2,0.3-0.4,0.7-0.5,1v0.7c0,1.2,0.1,2.4,0.2,3.6c0.3-0.7,0.6-1.3,1-1.9
				c0.5-0.8,1-1.5,1.6-2c0.6-0.6,1.2-0.4,1.8,0.1c-1.2,0.4-2,1.6-2.7,2.9c-0.5,1-1,2.1-1.4,3.3c0,0.2,0.1,0.3,0.1,0.5
				c0.5-0.8,1.1-1.5,1.8-2.2C99,345.3,99.6,344.9,100.2,344.6z"/>
			<path class="st2" d="M123.2,353c0.7-0.5,1.5-1.3,2.3-2.3c0,0,0-0.1,0-0.1c-1.8,0.1-3.4,0.4-4.9,0.6
				C120.3,353.8,121.5,354.2,123.2,353z"/>
			<path class="st2" d="M133.6,391.2L133.6,391.2l-0.2-0.5c0,0,0-0.1-0.1-0.1c-0.1-0.2-0.2-0.4-0.3-0.6c-0.1-0.1-0.1-0.2-0.2-0.3
				c0,0,0-0.1-0.1-0.1c-0.2-0.4-0.4-0.8-0.6-1.2c-0.1-0.2-0.2-0.4-0.4-0.6c-0.2-0.4-0.5-0.8-0.7-1.2l-0.8-1.2
				c-0.3-0.4-0.5-0.8-0.8-1.2c-0.1-0.1-0.1-0.2-0.2-0.2c-0.1-0.1-0.1-0.2-0.2-0.3c-0.2-0.2-0.3-0.4-0.5-0.6c-0.5-0.7-1-1.3-1.5-2
				c0,0,0,0,0,0c0,0,0,0,0,0c0,0,0,0,0,0c0,0-0.1-0.1-0.1-0.1l0,0c-0.3-0.3-0.5-0.6-0.8-1l-0.5-0.6l-0.5-0.6l-0.7-0.8
				c0,1.9-0.1,3.8,0.1,5.5c0.1,1.7,0.4,3.3,1.2,4.7c0.4,0.7,0.9,1.4,1.6,2.1c0.7,0.7,1.5,1.3,2.6,1.9c-1-1.6-2.1-3.3-2.9-5.1
				l5.5,3.4l0.4,0.2l0.2,0.1c0,0,0.1,0.1,0.1,0.1c0.1,0.2,0.2,0.4,0.3,0.5l0.1,0.3l0.1,0.1c0,0.1,0,0.1,0.1,0.1c0-0.1,0-0.1-0.1-0.2
				C133.8,391.6,133.7,391.4,133.6,391.2z"/>
			<polygon class="st2" points="134.4,394.3 134.4,394.3 134.4,394.3 			"/>
			<polygon class="st2" points="134.2,393.2 134.2,393.2 134.2,393.2 			"/>
			<path class="st2" d="M138.4,386.9l-0.1,0.1c0,0,0,0,0,0l0-0.1l0-0.2l0.1-0.9c0.3-0.6-0.4-1.1-0.8-1.7c-0.8-1.1-1.6-2.2-2.4-3.4
				c-0.1-0.2-0.1-0.3-0.2-0.5c-0.1,0.1-0.1,0.2-0.2,0.3c-0.8,1.2-2.1,2.6-3.4,3.2c0.3-0.7-0.3-0.6,0.1-1.4c-0.3,0.5-0.6,1.1-0.6,1.2
				c-0.1,0.2-0.2,0.4-0.2,0.5c-0.1,0.2-0.2,0.4-0.3,0.4c-0.2,0-0.4-0.2-0.7-0.6c-0.3-0.4-0.6-0.9-0.9-1.3c-0.3-0.5-0.7-0.9-1-1.1
				c-0.1-0.1-0.3-0.1-0.4-0.3c0,0.1,0.1,0.1,0.1,0.2c0.7,0.8,1.3,1.7,1.8,2.4c0.1,0.1,0.1,0.2,0.2,0.3c0,0,0,0,0.1,0.1
				c0,0.1,0.1,0.1,0.1,0.2c0.2,0.2,0.3,0.4,0.5,0.7c0.9,1.3,1.6,2.5,2.2,3.6c0.1,0.1,0.2,0.3,0.2,0.4c0.1,0.2,0.2,0.5,0.4,0.7
				c0,0,0,0.1,0.1,0.1c0,0.1,0.1,0.1,0.1,0.2c0,0.1,0.1,0.1,0.1,0.2c0.1,0.2,0.2,0.4,0.3,0.6c0,0,0,0.1,0.1,0.1l0,0c0,0,0,0,0,0
				c0.1,0.2,0.1,0.3,0.2,0.5l0,0.1c0-0.1-0.1-0.2-0.1-0.2c0.1,0.2,0.1,0.3,0.2,0.4l0,0c0,0,0,0,0,0.1c0,0,0,0.1,0,0.1
				c0,0,0,0.1,0,0.1c0,0,0,0,0,0.1l0.4-0.1c0.3,0,0.5-0.2,0.8-0.3c0.2-0.1,0.4-0.3,0.6-0.5c-0.5,0.9-0.6,1.7-1.5,1.9
				c0,0.1,0,0.2,0.1,0.3c0,0.1,0,0.2,0,0.3l0,0c0,0,0,0,0,0.1c0,0,0,0.1,0,0.1c0,0,0,0.1,0,0.1c0,0.1,0,0.2,0,0.3c0,0,0,0,0,0l0,0v0
				c0,0,0,0,0,0c0,0,0,0,0,0l0,0c0,0,0,0,0,0l0,0v0c0,0,0,0.1,0,0.1c0,0,0-0.1,0-0.1l0-0.1l0-0.1l0,0c0,0,0-0.1,0-0.1l0-0.1
				c0,0,0,0,0,0c0-0.1,0-0.2,0.1-0.2l0,0c0,0,0,0,0,0l0.1-0.4c0.1-0.3,0.2-0.6,0.4-0.9c0.1-0.1,0.1-0.3,0.2-0.4c0,0,0,0,0-0.1
				c0,0,0,0,0,0c0.1-0.1,0.1-0.3,0.2-0.4c0.2-0.4,0.5-0.9,0.8-1.3c0,0,0,0,0-0.1l0.1-0.2c0.3-0.5,0.6-0.9,1-1.4
				c0.1-0.2,0.2-0.3,0.4-0.5c0.1-0.2,0.2-0.3,0.4-0.5c0.1-0.2,0.3-0.4,0.5-0.6c0,0,0.1-0.1,0.1-0.1L138.4,386.9z"/>
			<path class="st2" d="M134.4,394.2L134.4,394.2C134.4,394.2,134.4,394.2,134.4,394.2C134.4,394.2,134.4,394.2,134.4,394.2
				L134.4,394.2C134.4,394.2,134.4,394.2,134.4,394.2z"/>
			<path class="st2" d="M139.4,385.7c-0.3,0.4-0.6,0.7-0.9,1.1c-0.2,0.2-0.3,0.4-0.5,0.6c-0.3,0.3-0.5,0.7-0.7,1
				c-0.1,0.2-0.3,0.4-0.4,0.6c-0.1,0.2-0.2,0.4-0.3,0.5l-0.2,0.3c0,0.1-0.1,0.2-0.1,0.2c-0.2,0.3-0.4,0.6-0.5,0.9
				c-0.1,0.2-0.3,0.5-0.4,0.8c0,0,0,0.1,0,0.1c-0.1,0.2-0.1,0.3-0.2,0.4c0,0.1-0.1,0.1-0.1,0.2c-0.1,0.3-0.2,0.5-0.3,0.8
				c0,0.1-0.1,0.2-0.1,0.3l0,0c0,0.1,0,0.2-0.1,0.3c0,0,0,0.1,0,0.1l0,0.1l0,0c0,0.1,0,0.1,0,0.2l0,0.1l0,0c0,0,0,0,0,0c0,0,0,0,0,0
				c0,0,0,0,0,0c0,0,0,0,0,0c0,0,0,0,0,0c0,0,0-0.1,0-0.1c0,0,0,0,0-0.1l0-0.3c0,0,0,0,0,0c0,0,0,0,0,0c0-0.1,0-0.3-0.1-0.4
				c0-0.2-0.1-0.3-0.1-0.4c-0.1,0-0.1,0-0.2,0c-0.2,0.1-0.5,0-0.8,0c-0.1,0-0.2,0-0.2,0l-0.1-0.4c-0.1-0.2-0.2-0.5-0.3-0.7
				c0-0.2-0.4-0.4-0.6-0.6c-0.2-0.2-0.4-0.3-0.7-0.4c-0.4-0.2-0.8-0.4-1.1-0.3c0.5,0.4,0.9,0.8,1.3,1.3l0.3,0.3
				c0.1,0.1,0.1,0.3,0.1,0.4c0.1,0.3,0.1,0.5,0.2,0.8c0,0.1,0.1,0.3,0.1,0.4l0.2,0.1c0.1,0.1,0.2,0.2,0.3,0.3
				c0.2,0.2,0.3,0.3,0.5,0.5c0.6,0.6,0.7,1.2,1,1.7c0.3,0.5,0.8,0.8,1.4,0.6c0.5-0.2,1-0.9,0.8-2.3c0.9,1.2,2.1,2.7,3.7,3.5
				c0.4,0.2,0.9,0.3,1.4,0.4c-0.3-4.5-0.8-9-1.4-13.5C139.8,385.3,139.6,385.5,139.4,385.7z"/>
			<path class="st2" d="M134.3,393.9L134.3,393.9C134.3,393.9,134.3,393.9,134.3,393.9C134.3,393.9,134.3,393.9,134.3,393.9z"/>
			<path class="st2" d="M212.5,314c-1,3.8-1.5,8-2.3,11.6c-0.4,1.6-0.8,3.1-1.4,4.3l0.4,23.1c0,0,14-5.1,19.2-5.7
				c7-0.9,16.7,0.4,21.6,1.4c1.1,0.2,2.2-0.6,2.2-1.8v-47.4c0-2.7-2.1-5-4.8-5.4c-5.1-0.8-8.7-1.2-12.2-1.6c-4.5-0.5-8.8-0.2-12,0.3
				c-8.1,1.3-14.2,8-14.7,16.1C210.4,310.5,212.4,312.9,212.5,314z"/>
			<path class="st2" d="M153.8,424.2c0-0.1,0-0.2,0.1-0.3c0,0-0.1,0-0.1,0.1C153.8,424.1,153.8,424.2,153.8,424.2z"/>
			<path class="st2" d="M193.4,305.5c-0.3,0.1-0.6,0.2-0.8,0.4v0c-5,3.7-9.3,7.2-13,10.8c-0.4,1.6-1.3,3.1-2.5,4.5
				c-1.7,2.1-3.9,4-6.2,6.1c-0.3,0.3-0.6,0.6-0.9,0.8c-5.7,8.5-9.2,18.1-11.9,30.5c1.5-2.2,2.9-3.9,4.3-5.5c2.7-3.1,5.1-5.7,8.2-9.9
				c0.3,1.1,1.1,2.7,2,3.7c1,1,2.1,1.3,3.3-0.3c0.3-1.5,1.1-3.4,2.2-5.4c1.1-2,2.4-4.1,3.6-6c0.2-0.2,0.3-0.4,0.5-0.5
				c0.2,0,0.3,0,0.5,0c0.3,0,0.6-0.1,0.8-0.2c0.5-0.2,0.8-0.6,1-1.2c-0.6-0.6-1.1-1.2-1.6-1.6c-0.2-0.2-0.4-0.4-0.6-0.5l-0.1-0.1
				c0,0,0,0-0.1,0l-0.1,0c-0.1,0-0.2,0.1-0.3,0.1c-1.5,1.5-2.1,3.1-2.7,4.8c-0.6,1.7-1.1,3.3-2.3,5c-2.7-1.8-0.5-4.2-4.1-3.1
				c1.6-0.7,4.9-5.3,9.1-9l0.3-0.1c0.1,0,0.1,0,0.2,0l0.2,0.1l0.7,0.5c0.4,0.3,0.9,0.7,1.3,1c0.8,0.7,1.6,1.4,2.3,2.2
				c0.6,0.8,1.3,1.5,1.8,2.3c0.5,0.8,0.9,1.6,1.2,2.4l-1.1-0.5c2.3,3.8,3.1,8.5,4,12.7c0.5,2.1,0.9,4.1,1.6,5.8
				c0.1,0.3,0.3,0.7,0.4,1c1.9-4.8,3-9.9,3-15.2v-16.3c-1.3-1.7-2.7-3.4-4.1-4.9c-1.7-1.7-3.3-3.2-4.8-4c-0.7,0-1.5-0.1-2.6-0.5
				c0.6-0.3,1.6-0.1,2.6,0.5c0.9,0,1.5-0.1,2.1-0.3c0.6-0.2,1.1-0.4,1.7-0.6c0.5-0.2,1.2-0.4,1.9-0.4c0.4,0,0.7,0,1.2,0.1
				c0.4,0.1,0.9,0.1,1.4,0.3c-0.2-3,0-3,0.7-2.8v-4c0-1.3-0.8-2.3-1.9-2.8c0,0-0.1,0-0.1,0C194.8,305.7,194.2,305.7,193.4,305.5z"/>
			<path class="st2" d="M70.4,224.7c-3.2-0.5-7.5-0.8-12-0.3c-3.5,0.4-7.1,0.8-12.2,1.6c-2.7,0.4-4.8,2.7-4.8,5.4v47.4
				c0,1.2,1.1,2,2.2,1.8c4.9-1,14.5-2.3,21.6-1.4c5.1,0.6,19.2,5.7,19.2,5.7l0.7-42.7C85.2,233.5,78.9,226,70.4,224.7z"/>
			<path class="st2" d="M136.3,333.5c-0.1-0.3-0.2-0.6-0.3-0.8c-0.3-0.8-0.4-1.4-0.4-2c0-1.1,0.4-1.8,0.8-2.5c-1,0.3-1.9-1.5-3-3.1
				c-1.1-1.6-2.3-2.9-3.5-2.1c-2.5-2.7-2-3.7-1.3-4.7c0.7-1,1.6-1.9,0-3.5c-1.3,1.6-2.6,3.2-3.7,4.8c-1.5-2.2-3-4.2-4.5-6
				c-0.6-0.3-1.1-0.5-1.6-0.6c7.2,8,12.1,14.4,15.6,23.1C135,335.1,135.6,334.3,136.3,333.5z"/>
			<path class="st2" d="M140.1,353.8C140.1,353.8,140.1,353.8,140.1,353.8c0.8-3.8,1.2-7.7,1.4-11.4c-0.5,0.6-0.9,1.2-1.3,1.8
				c-0.8,1.1-1.6,2.1-2.3,3.1c0.5,1.9,0.9,3.9,1.3,6C139.5,353.5,139.8,353.6,140.1,353.8z"/>
			<path class="st2" d="M115.6,309.3c0.4-0.1,1.2,0.4,2.1,1c0.9,0.6,1.8,1.2,2.5,1.2c0.7,0,1.1-0.6,0.8-2.4c-1.4,0.5-2.9,0-4.5-0.8
				c-1.6-0.9-3.2-2.2-5.1-3.6l1.3,0.1c-0.7-0.5-1.5-0.7-2.4-0.7c1.9,1.9,3.7,3.8,5.1,5.4C115.5,309.3,115.6,309.3,115.6,309.3z"/>
			<path class="st2" d="M109.8,298.4c2.5,0.7,4.2,1.5,5.9,2.4c1.7,0.9,3.4,1.9,5.4,3.1c0.4,1.3-0.7,1.2-1.2,1.2
				c1.4,0.7,2.9,1.7,4.5,3c1.6,1.2,3.3,2.7,5,4.2c3.4,3,6.9,6.6,9.9,8.1c0.4,0.6,0.9,1.5,1.5,2.6c-0.5-4.3-1.1-8.5-1.8-12.8
				c-5.8-37.3-11.3-52.9-38.1-72.4l0,0c-2-1.4-4.7,0-4.7,2.4v32.9c0,9,3,17.6,8.4,24.7c0.3,0,0.6,0,0.9,0
				C106.9,297.8,108.6,298.1,109.8,298.4z"/>
			<path class="st2" d="M247.2,226c-5.1-0.8-8.7-1.2-12.2-1.6c-4.5-0.5-8.8-0.2-12,0.3c-8.6,1.3-14.9,8.8-14.7,17.5l0.7,42.7
				c0,0,14-5.1,19.2-5.7c7-0.9,16.7,0.4,21.6,1.4c1.1,0.2,2.2-0.6,2.2-1.8v-47.4C252,228.7,249.9,226.5,247.2,226z"/>
			<path class="st2" d="M152.2,345.9c1.5-1.8,3-3.6,4.5-5.3c0.5-0.5,0.9-1,1.3-1.5c2.5-7.1,5.6-12.6,10-18.2
				c0.4-0.7,0.9-1.4,1.8-2.3l0,0.1c1.8-2.2,3.9-4.5,6.1-7c1.9-2.1,5.1-5.7,8.8-9.2c1-1,2-2,2.9-3c-0.4-0.5-0.7-0.9-1.1-1.3
				c-0.7-0.8-1.5-1.5-2.3-2.2c-0.4-0.3-0.8-0.7-1.3-1c-0.2-0.2-0.4-0.3-0.7-0.5c-0.2-0.1-0.4-0.2-0.7-0.4
				c-5.4,4.9-10.2,11.6-15.1,15.1c-1.8,4.7-0.7,4.8-5.5,10.1c0.1-2.9,2.4-6.1,4.1-8.6c1.7-2.5,2.7-4.4-0.2-4.7
				c-2.3,1.2-5.4,3.6-8,6.5c-1.4,1.5-2.6,3.2-3.5,5c-0.2,1.3-0.4,2.6-0.5,3.9c2.6-2.6,3.9-3.2,4.7-3c0.8,0.3,0.9,1.7,1,3.1
				c0.1,2.8,0.3,5.5,5.8-1.2c0.4-0.5,0.7-1,1.2-1.4c-0.5,0.6-0.8,1-1.2,1.4c-2.4,3.3-3.2,7.5-6.9,12.2c-3.5,2.7-1.2-2.3,0.3-5.9
				c0.7-1.8,1.3-3.3,0.7-3.4c-0.3,0-0.9,0.2-1.9,1c-0.5,0.4-1.1,0.9-1.8,1.6c-0.7,0.7-1.5,1.5-2.5,2.5c0,0.1,0,0.2,0,0.3
				c0.2,2.9,0.5,5.7,0.8,8.6c-0.4,0.4-0.8,0.9-1.2,1.3C151.8,341,152,343.4,152.2,345.9z M165.6,321.8l0.5,0.1
				c-1.2,1.8-2.3,3.6-3.4,5.4l-0.5-0.1C163.3,325.4,164.4,323.6,165.6,321.8z"/>
			<path class="st2" d="M153.2,347.1c0.6,1.6,0.5,3.3-0.1,5.2c0.2,1.3,0.5,2.6,0.8,3.9c0.8-4.8,1.8-9,2.8-12.8
				C155.8,343.7,154.7,344.7,153.2,347.1z"/>
			<path class="st2" d="M158.4,309.3c2.3-2.8,4.4-5.6,6.4-9.3c-0.1,0.9-1.6,2.8-1.2,3.8c2.2-0.2,4.2-2.7,6.3-5.3
				c2.1-2.6,4.3-5.5,6.4-6.3l-3.1,3.8c-0.5,2,3.6-1.6,5.8-3.6c0.7-0.6,1.5-1.6,2.4-2.6c3.2,1.1,6.7,1.4,1.7-4l3.3,3.1l3,3
				c0.1-0.2,0-0.7-0.2-1.2c-0.4-0.6-0.8-1.3-1-1.9c0.3,0.5,0.7,1.3,1,1.9c0.6,0.9,1.3,1.8,2,2.6c0.1,0.1,0.2,0.2,0.3,0.3
				c3.6-6.2,5.6-13.2,5.6-20.5v-32.9c0-2.4-2.8-3.8-4.7-2.4l0,0c-26.8,19.6-32.4,35.1-38.1,72.4c-0.2,1.6-0.5,3.1-0.7,4.7
				c0.3-0.4,0.6-0.7,0.9-1.1C156,312.2,157.2,310.7,158.4,309.3z"/>
			<path class="st2" d="M70.4,88.5c-3.2-0.5-7.5-0.8-12-0.3c-3.5,0.4-7.1,0.8-12.2,1.6c-2.7,0.4-4.8,2.7-4.8,5.4v47.4
				c0,1.2,1.1,2,2.2,1.8c4.9-1,14.5-2.3,21.6-1.4c5.1,0.6,19.2,5.7,19.2,5.7l0.7-42.7C85.2,97.3,78.9,89.8,70.4,88.5z"/>
			<path class="st2" d="M111.1,109.8c-3-2.7-6.4-5.4-10.2-8.2c-2-1.4-4.7,0-4.7,2.4v16.4c0.8-1,1.7-2,2.6-2.9
				C102.3,113.9,106.4,111.3,111.1,109.8z"/>
			<path class="st2" d="M252,95.2c0-2.7-2.1-5-4.8-5.4c-5.1-0.8-8.7-1.2-12.2-1.6c-4.5-0.5-8.8-0.2-12,0.3
				c-8.6,1.3-14.9,8.8-14.7,17.5l0.7,42.7c0,0,14-5.1,19.2-5.7c7-0.9,16.7,0.4,21.6,1.4c1.1,0.2,2.2-0.6,2.2-1.8V95.2z"/>
			<path class="st2" d="M197.3,104c0-2.4-2.8-3.8-4.7-2.4l0,0c-3.8,2.8-7.2,5.5-10.2,8.2c0.7,0.2,1.4,0.5,2.1,0.8
				c5.1,2.1,9.4,5.5,12.8,9.9V104z"/>
			<path class="st2" d="M82.2,39.5l-0.8-0.5l-1.6-0.9c-1.1-0.6-2.1-1.3-3.2-2l-0.3-0.2l-0.1-0.1l-0.3-0.2l-0.5-0.4l-1-0.7
				c-0.2-0.1-0.3-0.2-0.4-0.3c0.5-0.8,0.9-1.3,1.5-1.9c0.5-0.6,1.1-1.2,1.6-2.4c0.1,0.1,0.2,0.1,0.3,0.1l0,0c0,0,0,0,0.1,0l0.2,0.1
				l0.8,0.6l0.8,0.6l1.1,0.7l1.2,0.8c1.1,0.7,2.2,1.3,3.3,1.9c-0.2-1.3-0.6-2.6-1.1-3.8c-0.8-0.4-1.5-0.8-2.3-1.3
				c-0.6-0.4-1.3-0.8-1.9-1.2c-0.2-0.2-0.5-0.3-0.7-0.5l-0.1,0c-0.1,0-0.1,0-0.2-0.1c-0.5-0.2-0.7-0.9-0.9-1.4
				c0.8-0.8,1.2-1.4,1.4-1.8c0.1-0.1,0.1-0.2,0.1-0.3c-0.3-0.3-0.7-0.6-1-0.9c0,0.1-0.1,0.3-0.1,0.4c-0.3,0.9-0.7,1.4-1.6,2.7
				c0.1,0.4,0.3,0.5,0.3,0.8c0.1,0.3,0,0.9-0.1,2c-0.1-0.8-0.6-0.6-1.2,0.3c-0.7,0.9-1.5,2.5-2.3,4.2c-0.8,1.7-1.6,3.4-2,4.4
				c-0.5,1.1-0.6,1.5-0.2,0.5c0.4-1.1,1-2.8,1.7-4.6c0.6-1.8,1.2-3.9,1.6-5.1c-0.3,0.3-0.8,1-1.2,2.3c-0.7,2.7-1.5,5.4-2.3,8.1
				c-0.5,1.8,0.5-1.6,1.2-4.7c0.4-1.5,0.7-3,0.7-3.5c0.1-0.5-0.1-0.1-0.6,2.2c-0.2,0.9-0.2,0.9-0.6,2.7c-0.1,0.5-0.1,0.6-0.1,0.6
				c0,0,0.2-0.6,0.1-0.1c-0.7,2.7-0.1,0.5,0.5-3.8c0.3-2.1,0.7-4.8,0.8-7.3c0.1-1.7,0.1-3.3,0.2-4.6c-0.1,0-0.1,0-0.2-0.1
				c-0.2,1.5-0.4,3.9-1.4,12.9c0.6-5.8,0.5-5.5,0.7-7c0.2-1.9,0.3-3.7,0.7-5.9c-0.1,0-0.1,0-0.2-0.1c0,0.2-0.1,0.5-0.1,0.8
				c-0.2,1.3-0.4,3-0.5,4.2c0,1.2-0.2,3.3-0.4,5.4c-0.2,2.1-0.4,4.1-0.5,5.7c0-0.4,0.1-1.7,0.2-3.1c0.1-1.4,0.2-3,0.3-3.9
				c0-1.2,0.1-2.5,0.1-3.7c0-0.9,0-0.7-0.3,3.1c0.1-2.3,0.3-5.5,0.6-8.7c-0.1,0-0.1,0-0.2,0c-0.1,1.8-0.2,3.7-0.5,8.9l0.1-0.4
				c-0.1,1.4-0.2,2.8-0.2,3.3c0.2-3.5,0.1-2.2,0.2-5.1c-0.2,2.3-0.3,4.5-0.3,6.5l0.2-4.9c0.1-2.7,0.2-5.5,0.4-8.4
				c-0.3-0.1-0.7-0.2-1-0.2c-1.5-0.2-3.2-0.4-5-0.5l-0.1,0.1c-0.1,0.1-0.4,0.3-0.6,0.5c-0.2,0.2-0.4,0.3-0.6,0.5
				c-0.4,0.3-0.6,0.7-0.9,1.1c-0.5,0.7-0.9,1.5-1.5,2.2c-1.4,0.8-3.4,1.6-6.8,2.2c-0.8,0.1-1.8,0.3-2.8,0.4c-1,0.1-2.2,0.2-3.2,0.2
				c-2,0-4.5,0-7.3-0.3c0,0.1,0,0.1,0,0.2c0.7,0.9,2.4,1.4,4.8,1.7c0.6,0.1,1.3,0.1,2.1,0.2c0.4,0,0.7,0,1.1,0.1c0.4,0,0.9,0,1.3,0
				c1.9,0,3.9-0.2,6.1-0.4c1.1-0.1,2.2-0.2,3.3-0.4c0.6-0.1,1.1-0.2,1.7-0.2l0.2,0l0.1,0l0.2,0l0.4-0.1c1-0.3,2-0.5,3.1-0.8l1.1-0.3
				c0.3-0.1,0.7-0.2,1-0.2l0.5-0.1c0.1,0,0.1,0,0.1,0c0.1,0,0.1,0.1,0.2,0.1c-0.1-1.6-0.2-3.3-0.2-5c0.1,1.4,0.6,2.1,0.9,3
				c0.3,0.9,0.4,1.9,0.2,3.9c-0.1,0.4-0.2,0.7-0.2,1.1l-0.1,0.5l0,0.3l0,0.1l0,0.1c0,0,0,0,0,0l-0.1,0l-1.5,0.8l-0.8,0.4L65.6,32
				l-2.4,0.8c-0.2,0.1-0.3,0.1-0.6,0.2l-1.4,0.3c-0.9,0.2-1.9,0.3-2.8,0.4c1.1,0.2,2.1,0.4,3.2,0.6l0.8,0.1l0.4,0.1l0.2,0.1l0.7,0.3
				l3,1.3l-2.1,0.4l-1.1,0.2l-0.3,0l-0.1,0c0,0-0.1,0-0.2,0l-1.2,0.1c-3.3,0.4-6.6,0.6-9.9,0.6l-2.5,0l-2.1-0.1
				c-1.4-0.1-2.8-0.2-4.2-0.3c-0.5,0-1-0.1-1.5-0.2v37.2c0,1.2,1.1,2,2.2,1.8c4.9-1,14.5-2.3,21.6-1.4c5.1,0.6,19.2,5.7,19.2,5.7
				L85,41c-0.6-0.3-1.3-0.6-1.9-0.9L82.2,39.5z M69.8,33.6l0,0.5v0.3l0,0.1c0,0,0,0.1-0.1,0.2l-1.4-0.9l0.7-0.4l0.3-0.2
				c0.1-0.1,0.3-0.1,0.2-0.2l0-0.5c0-0.4,0-0.7,0.1-1.1l0.2,1.1C69.9,32.8,69.8,33.2,69.8,33.6z"/>
			<path class="st2" d="M41.5,34.9v0.3c0.4-0.1,0.9-0.2,1.3-0.2C42.4,35,41.9,35,41.5,34.9z"/>
			<path class="st2" d="M72.9,24.6c0,1.6-0.1,2.9-0.1,3.8c-0.1,1.8,0,2.2,0.2,2.1c0.3-1.4,0.6-2.8,0.8-4.2l0.2,0.5
				c0.3-1.6,0.7-3.3,1-5c-0.6-0.3-1.3-0.5-2-0.8C72.9,22.3,72.9,23.5,72.9,24.6z"/>
			<path class="st2" d="M58.4,20c-3.5,0.4-7.1,0.8-12.2,1.6c-0.3,0-0.5,0.1-0.8,0.2c0.4,0.2,0.7,0.5,1.1,0.7c3.2,0,7.7-0.3,11.6-0.9
				c1-0.1,2-0.3,3-0.5c0.2,0,0.2,0,0.2-0.1l0.2-0.1l0.3-0.1l0.7-0.2l1.4-0.4l0.7-0.2L65,20l0.2-0.1c0,0,0,0,0.1-0.1
				C63.1,19.7,60.8,19.8,58.4,20z"/>
			<path class="st2" d="M102.7,34.8c-0.3-0.1-0.7-0.1-1-0.2c-1.1-0.3-2.3-0.6-3.3-0.9c-0.3-0.1-0.6-0.2-0.8-0.3
				c-0.6,0.4-1.1,1-1.3,1.7c1,0.5,2,1,3.1,1.4c-0.9-0.1-2-0.3-3.2-0.6v3.8c3.3,1.1,6.9,2.1,10.6,2.8c0.6,1-1,1.6-2.9,2.2
				c-1.8,0.6-3.8,1-3.9,1.9c3.4,0.9,7.2,1.6,11,2.1c2.6,0.3,5.2,0.4,7.7,0.5C114.4,44.4,109.2,39.7,102.7,34.8z"/>
			<path class="st2" d="M104.4,49.7c-1.8-0.6-2.8-1.2-3.5-1.7c-0.7-0.5-0.9-0.9-0.9-1.3c-1.3-0.3-2.5-0.7-3.8-1.1v23.2
				c0,11.1,4.6,21.7,12.6,29.4c3.6,3.5,6.9,7.1,8.8,9.2c0.3,0.3,0.5,0.6,0.8,0.8c1.5-0.2,2.9-0.3,4.4-0.3c0.5,0,1.1,0,1.6,0
				c5.8,0.3,11,1.6,15.6,4.1c-0.3-2-0.6-4.1-0.9-6.1c-3.8-24.9-7.6-40.1-17.6-53.3c-3.8-0.1-7-0.5-9.7-1
				C108.5,51,106.2,50.3,104.4,49.7z"/>
			<path class="st2" d="M100.6,33.2c-0.5-0.2-0.9-0.3-1.4-0.3c0.2,0,0.3,0.1,0.5,0.1C99.9,33.1,100.2,33.2,100.6,33.2z"/>
			<path class="st2" d="M241.3,20.9L241.3,20.9l-0.2,0.1l-1,0.6c-1.4,0.7-2.8,1.4-4.2,2.1c-1.4,0.7-3,1.3-4.5,1.9
				c-3.2,0.7-5.8,0.9-7.8,1c-2,0.1-3.4,0-4.4-0.3c-2.1-0.4-2.7-1.1-3.6-1.6c-0.3-0.2-0.6-0.3-1-0.4c-3.8,3.3-6.1,8.1-6,13.4
				l0.7,42.7c0,0,14-5.1,19.2-5.7c7-0.9,16.7,0.4,21.6,1.4c1.1,0.2,2.2-0.6,2.2-1.8V27.1c0-2.7-2.1-5-4.8-5.4
				c-2.1-0.3-4-0.6-5.7-0.8L241.3,20.9L241.3,20.9z"/>
			<path class="st2" d="M170.7,107.9c1.5,0,3,0.1,4.4,0.3c0.3-0.3,0.5-0.6,0.8-0.9c1.9-2.1,5.1-5.7,8.8-9.2
				c8.1-7.6,12.6-18.3,12.6-29.4V35.9c0-2.4-2.8-3.8-4.7-2.4l0,0c-26.8,19.6-32.4,35.1-38.1,72.4c-0.3,2-0.6,4.1-0.9,6.1
				c4.3-2.2,9.1-3.6,14.2-4C168.7,107.9,169.7,107.9,170.7,107.9z"/>
			<path class="st0" d="M196.2,148.3c0.9-3,1.3-6.1,1.1-9.2c-0.4,8.2-3.4,16.1-8.4,22.6C192.2,157.7,194.7,153.3,196.2,148.3z"/>
			<path class="st0" d="M102.6,159.1c0.8,1.1,1.6,2.1,2.5,3c-5.3-6.6-8.4-14.6-8.8-23.1c-0.2,2.6,0.1,5.2,0.7,7.8
				C97.9,151.3,99.9,155.4,102.6,159.1z"/>
			<path class="st0" d="M141.4,193.3c0.6,0.8,1.2,1.7,1.7,2.5c1.2,1.8,2.2,3.8,3.3,5.6c0.1,0.1,0.1,0.4,0.3,0.4
				c0.2,0,0.2-0.2,0.3-0.4c0.6-1,1.1-2,1.7-3c1-1.8,2.2-3.5,3.4-5.2c0.5-6.5,1.4-12.9,2.4-19.3c4.4-28.3,8.6-44.1,22.1-58.5
				c-2.4-0.5-4.8-0.6-7.3-0.5c-8.1,10-12.3,19-15.5,36.9c-2.4-10.5-2.3-20.7-1.3-30.7c-1.8,1.5-3.3,3.2-4.5,5.3
				c-0.5,0.8-0.8,1.7-1.3,2.6c-0.1-0.2-0.1-0.3-0.2-0.5c-1.1-2.8-2.8-5.1-5-7.1c-0.2-0.1-0.3-0.3-0.5-0.4c1,10.1,1,20.2-1.3,30.7
				c-3.1-17.9-7.4-26.9-15.5-36.9c-0.1,0-0.1,0-0.2,0c-2.4-0.1-4.8,0.1-7.1,0.6c13.5,14.5,17.7,30.3,22.1,58.5
				C140,180.4,140.9,186.8,141.4,193.3z"/>
			<path class="st0" d="M112.1,168.7c3.7,3,7.7,5.5,11.6,8.2c2,1.3,3.9,2.7,5.9,4.2c2.6,2,5,4.2,7.3,6.7c1.6,1.8,3.1,3.6,4.5,5.5
				c-0.5-6.5-1.4-12.9-2.4-19.3c-4.4-28.3-8.6-44.1-22.1-58.5c-1.2,0.2-2.4,0.5-3.5,0.9c-3.7,1.2-6.9,3.2-9.7,6
				c-2.4,2.4-4.2,5.2-5.5,8.3c-1.2,2.7-1.8,5.5-2,8.3c0.5,8.5,3.6,16.5,8.8,23.1C107.2,164.5,109.5,166.7,112.1,168.7z"/>
			<path class="st0" d="M152.1,193.3c1.1-1.5,2.2-2.9,3.4-4.3c3.4-4,7.4-7.4,11.7-10.4c2.6-1.8,5.3-3.6,8-5.4c4-2.7,7.8-5.6,11.2-9
				c0.8-0.9,1.6-1.7,2.4-2.6c5-6.5,8-14.3,8.4-22.6c0-0.6-0.1-1.1-0.2-1.7c-0.6-4.6-2.4-8.9-5.2-12.6c-2.7-3.5-6-6.1-10.1-7.8
				c-1.7-0.7-3.4-1.2-5.2-1.6c-13.5,14.5-17.7,30.3-22.1,58.5C153.5,180.4,152.6,186.8,152.1,193.3z"/>
			<path class="st0" d="M141,121.1c-4.8-4-10.6-5.9-16.8-6.2c8.1,10,12.4,19,15.5,36.9C142.1,141.3,142,131.1,141,121.1z"/>
			<path class="st0" d="M153.8,151.8c3.1-17.8,7.4-26.9,15.5-36.9c-0.3,0-0.7,0-1,0c-4.5,0.3-8.8,1.6-12.7,3.9
				c-1.1,0.7-2.1,1.4-3.1,2.2C151.5,131.1,151.4,141.3,153.8,151.8z"/>
		</g>
	</g>
</g>
</svg>
